<svg xmlns="http://www.w3.org/2000/svg" viewBox="0 0 500 372.61"><defs><style>.cls-1{fill:#ebebeb;}.cls-2{fill:#fafafa;}.cls-3,.cls-5{fill:#f0f0f0;}.cls-4{fill:#e0e0e0;}.cls-5{stroke:#e0e0e0;stroke-linecap:round;stroke-linejoin:round;stroke-width:2px;}.cls-6{fill:#f5f5f5;}.cls-7{fill:#e6e6e6;}.cls-8{fill:#407bff;}.cls-10,.cls-13,.cls-14,.cls-15,.cls-19,.cls-25,.cls-26,.cls-28,.cls-9{fill:#fff;}.cls-17,.cls-23,.cls-26,.cls-9{opacity:0.2;}.cls-10,.cls-12,.cls-14,.cls-15,.cls-20,.cls-21,.cls-23,.cls-25,.cls-28,.cls-29,.cls-30,.cls-9{isolation:isolate;}.cls-10,.cls-21{opacity:0.3;}.cls-11{fill:#263238;}.cls-12,.cls-14{opacity:0.6;}.cls-15,.cls-29{opacity:0.1;}.cls-16,.cls-25,.cls-30{opacity:0.4;}.cls-18,.cls-28{opacity:0.5;}.cls-19{opacity:0.7;}.cls-22{fill:#b65b52;}.cls-24{fill:#b55b52;}.cls-27{fill:#a02724;}</style></defs><title>Asset 1</title><g id="Layer_2" data-name="Layer 2"><g id="Character"><rect class="cls-1" y="327.45" width="500" height="0.25"/><rect class="cls-1" x="416.78" y="343.54" width="33.12" height="0.25"/><rect class="cls-1" x="322.53" y="346.26" width="8.69" height="0.25"/><rect class="cls-1" x="396.59" y="334.26" width="19.19" height="0.25"/><rect class="cls-1" x="52.46" y="335.94" width="43.19" height="0.25"/><rect class="cls-1" x="104.56" y="335.94" width="6.33" height="0.25"/><rect class="cls-1" x="131.47" y="340.16" width="93.68" height="0.25"/><path class="cls-1" d="M237,282.85H43.91a5.71,5.71,0,0,1-5.7-5.71V5.71A5.71,5.71,0,0,1,43.91,0H237a5.71,5.71,0,0,1,5.71,5.71V277.14A5.71,5.71,0,0,1,237,282.85ZM43.91.25a5.46,5.46,0,0,0-5.45,5.46V277.14a5.46,5.46,0,0,0,5.45,5.46H237a5.47,5.47,0,0,0,5.46-5.46V5.71A5.47,5.47,0,0,0,237,.25Z"/><path class="cls-1" d="M453.31,282.85H260.21a5.72,5.72,0,0,1-5.71-5.71V5.71A5.72,5.72,0,0,1,260.21,0h193.1A5.71,5.71,0,0,1,459,5.71V277.14A5.71,5.71,0,0,1,453.31,282.85ZM260.21.25a5.47,5.47,0,0,0-5.46,5.46V277.14a5.47,5.47,0,0,0,5.46,5.46h193.1a5.47,5.47,0,0,0,5.46-5.46V5.71A5.47,5.47,0,0,0,453.31.25Z"/><rect class="cls-1" x="79.34" y="47.72" width="169.52" height="189.92"/><rect class="cls-2" x="82.67" y="50.78" width="166.19" height="183.49"/><polygon class="cls-3" points="88.81 148.18 88.81 135.28 92.49 135.28 92.49 126.69 97.4 126.69 97.4 113.8 98.63 113.8 98.63 126.69 103.54 126.69 103.54 135.28 107.22 135.28 107.22 148.18 113.98 148.18 113.98 151.86 117.05 151.86 117.05 165.98 117.66 165.98 117.66 145.72 119.5 145.72 119.5 158.61 121.34 158.61 121.34 127.92 122.57 127.92 122.57 140.81 127.48 140.81 127.48 136.51 129.32 136.51 129.32 118.71 133.01 118.71 133.01 100.91 134.24 100.91 134.24 103.36 159.41 103.36 159.41 95.99 163.7 95.99 163.7 67.75 165.55 67.75 165.55 95.99 171.69 95.99 171.69 103.36 174.14 103.36 174.14 140.19 187.03 140.19 187.03 129.15 182.74 129.15 182.74 127.3 187.03 127.3 187.03 124.23 199.31 124.23 199.31 95.99 202.38 95.99 202.38 91.7 217.11 91.7 217.11 95.99 218.96 95.99 218.96 135.28 225.71 135.28 225.71 153.09 229.39 153.09 229.39 138.97 232.46 138.97 232.46 135.28 239.22 135.28 239.22 122.39 242.9 122.39 242.9 113.8 247.19 113.8 247.19 100.91 248.86 100.91 248.86 234.27 82.67 234.27 82.67 148.18 88.81 148.18"/><rect class="cls-2" x="148.27" y="105.29" width="1.74" height="1.74"/><rect class="cls-2" x="148.27" y="108.2" width="1.74" height="1.74"/><rect class="cls-2" x="148.27" y="119.87" width="1.74" height="1.74"/><rect class="cls-2" x="148.27" y="122.78" width="1.74" height="1.74"/><rect class="cls-2" x="148.27" y="125.7" width="1.74" height="1.74"/><rect class="cls-2" x="148.27" y="134.45" width="1.74" height="1.74"/><rect class="cls-2" x="148.27" y="137.36" width="1.74" height="1.74"/><rect class="cls-2" x="151.03" y="116.95" width="1.74" height="1.74"/><rect class="cls-2" x="151.03" y="119.87" width="1.74" height="1.74"/><rect class="cls-2" x="151.03" y="122.78" width="1.74" height="1.74"/><rect class="cls-2" x="151.03" y="125.7" width="1.74" height="1.74"/><rect class="cls-2" x="151.03" y="128.61" width="1.74" height="1.74"/><rect class="cls-2" x="151.03" y="134.45" width="1.74" height="1.74"/><rect class="cls-2" x="151.03" y="137.36" width="1.74" height="1.74"/><rect class="cls-2" x="153.79" y="105.29" width="1.74" height="1.74"/><rect class="cls-2" x="153.79" y="108.2" width="1.74" height="1.74"/><rect class="cls-2" x="153.79" y="111.12" width="1.74" height="1.74"/><rect class="cls-2" x="153.79" y="114.03" width="1.74" height="1.74"/><rect class="cls-2" x="153.79" y="116.95" width="1.74" height="1.74"/><rect class="cls-2" x="153.79" y="119.87" width="1.74" height="1.74"/><rect class="cls-2" x="153.79" y="122.78" width="1.74" height="1.74"/><rect class="cls-2" x="153.79" y="125.7" width="1.74" height="1.74"/><rect class="cls-2" x="153.79" y="128.61" width="1.74" height="1.74"/><rect class="cls-2" x="153.79" y="131.53" width="1.74" height="1.74"/><rect class="cls-2" x="153.79" y="137.36" width="1.74" height="1.74"/><rect class="cls-2" x="156.56" y="105.29" width="1.74" height="1.74"/><rect class="cls-2" x="156.56" y="108.2" width="1.74" height="1.74"/><rect class="cls-2" x="156.56" y="111.12" width="1.74" height="1.74"/><rect class="cls-2" x="156.56" y="114.03" width="1.74" height="1.74"/><rect class="cls-2" x="156.56" y="116.95" width="1.74" height="1.74"/><rect class="cls-2" x="156.56" y="119.87" width="1.74" height="1.74"/><rect class="cls-2" x="156.56" y="122.78" width="1.74" height="1.74"/><rect class="cls-2" x="156.56" y="149.03" width="1.74" height="1.74"/><rect class="cls-2" x="159.32" y="105.29" width="1.74" height="1.74"/><rect class="cls-2" x="159.32" y="108.2" width="1.74" height="1.74"/><rect class="cls-2" x="159.32" y="111.12" width="1.74" height="1.74"/><rect class="cls-2" x="159.32" y="114.03" width="1.74" height="1.74"/><rect class="cls-2" x="159.32" y="116.95" width="1.74" height="1.74"/><rect class="cls-2" x="159.32" y="119.87" width="1.74" height="1.74"/><rect class="cls-2" x="159.32" y="122.78" width="1.74" height="1.74"/><rect class="cls-2" x="159.32" y="125.7" width="1.74" height="1.74"/><rect class="cls-2" x="159.32" y="143.19" width="1.74" height="1.74"/><rect class="cls-2" x="159.32" y="146.11" width="1.74" height="1.74"/><rect class="cls-2" x="159.32" y="149.03" width="1.74" height="1.74"/><rect class="cls-2" x="159.32" y="151.94" width="1.74" height="1.74"/><rect class="cls-2" x="159.32" y="163.61" width="1.74" height="1.74"/><rect class="cls-2" x="162.08" y="105.29" width="1.74" height="1.74"/><rect class="cls-2" x="162.08" y="108.2" width="1.74" height="1.74"/><rect class="cls-2" x="162.08" y="111.12" width="1.74" height="1.74"/><rect class="cls-2" x="162.08" y="114.03" width="1.74" height="1.74"/><rect class="cls-2" x="162.08" y="116.95" width="1.74" height="1.74"/><rect class="cls-2" x="162.08" y="119.87" width="1.74" height="1.74"/><rect class="cls-2" x="162.08" y="122.78" width="1.74" height="1.74"/><rect class="cls-2" x="162.08" y="125.7" width="1.74" height="1.74"/><rect class="cls-2" x="162.08" y="128.61" width="1.74" height="1.74"/><rect class="cls-2" x="162.08" y="131.53" width="1.74" height="1.74"/><rect class="cls-2" x="162.08" y="140.28" width="1.74" height="1.74"/><rect class="cls-2" x="162.08" y="143.19" width="1.74" height="1.74"/><rect class="cls-2" x="162.08" y="146.11" width="1.74" height="1.74"/><rect class="cls-2" x="162.08" y="149.03" width="1.74" height="1.74"/><rect class="cls-2" x="162.08" y="151.94" width="1.74" height="1.74"/><rect class="cls-2" x="162.08" y="163.61" width="1.74" height="1.74"/><rect class="cls-2" x="164.84" y="105.29" width="1.74" height="1.74"/><rect class="cls-2" x="164.84" y="108.2" width="1.74" height="1.74"/><rect class="cls-2" x="164.84" y="111.12" width="1.74" height="1.74"/><rect class="cls-2" x="164.84" y="114.03" width="1.74" height="1.74"/><rect class="cls-2" x="164.84" y="116.95" width="1.74" height="1.74"/><rect class="cls-2" x="164.84" y="119.87" width="1.74" height="1.74"/><rect class="cls-2" x="164.84" y="122.78" width="1.74" height="1.74"/><rect class="cls-2" x="164.84" y="125.7" width="1.74" height="1.74"/><rect class="cls-2" x="164.84" y="128.61" width="1.74" height="1.74"/><rect class="cls-2" x="164.84" y="131.53" width="1.74" height="1.74"/><rect class="cls-2" x="164.84" y="134.45" width="1.74" height="1.74"/><rect class="cls-2" x="164.84" y="137.36" width="1.74" height="1.74"/><rect class="cls-2" x="164.84" y="140.28" width="1.74" height="1.74"/><rect class="cls-2" x="164.84" y="143.19" width="1.74" height="1.74"/><rect class="cls-2" x="164.84" y="146.11" width="1.74" height="1.74"/><rect class="cls-2" x="164.84" y="149.03" width="1.74" height="1.74"/><rect class="cls-2" x="164.84" y="151.94" width="1.74" height="1.74"/><rect class="cls-2" x="164.84" y="154.86" width="1.74" height="1.74"/><rect class="cls-2" x="167.61" y="105.29" width="1.74" height="1.74"/><rect class="cls-2" x="167.61" y="108.2" width="1.74" height="1.74"/><rect class="cls-2" x="167.61" y="111.12" width="1.74" height="1.74"/><rect class="cls-2" x="167.61" y="114.03" width="1.74" height="1.74"/><rect class="cls-2" x="167.61" y="116.95" width="1.74" height="1.74"/><rect class="cls-2" x="167.61" y="119.87" width="1.74" height="1.74"/><rect class="cls-2" x="167.61" y="122.78" width="1.74" height="1.74"/><rect class="cls-2" x="167.61" y="125.7" width="1.74" height="1.74"/><rect class="cls-2" x="167.61" y="128.61" width="1.74" height="1.74"/><rect class="cls-2" x="167.61" y="131.53" width="1.74" height="1.74"/><rect class="cls-2" x="167.61" y="140.28" width="1.74" height="1.74"/><rect class="cls-2" x="167.61" y="143.19" width="1.74" height="1.74"/><rect class="cls-2" x="167.61" y="146.11" width="1.74" height="1.74"/><rect class="cls-2" x="167.61" y="149.03" width="1.74" height="1.74"/><rect class="cls-2" x="170.37" y="105.29" width="1.74" height="1.74"/><rect class="cls-2" x="170.37" y="108.2" width="1.74" height="1.74"/><rect class="cls-2" x="170.37" y="111.12" width="1.74" height="1.74"/><rect class="cls-2" x="170.37" y="114.03" width="1.74" height="1.74"/><rect class="cls-2" x="170.37" y="116.95" width="1.74" height="1.74"/><rect class="cls-2" x="170.37" y="119.87" width="1.74" height="1.74"/><rect class="cls-2" x="170.37" y="122.78" width="1.74" height="1.74"/><rect class="cls-2" x="170.37" y="125.7" width="1.74" height="1.74"/><rect class="cls-2" x="170.37" y="128.61" width="1.74" height="1.74"/><rect class="cls-2" x="170.37" y="131.53" width="1.74" height="1.74"/><rect class="cls-2" x="170.37" y="140.28" width="1.74" height="1.74"/><rect class="cls-2" x="170.37" y="143.19" width="1.74" height="1.74"/><rect class="cls-2" x="170.37" y="146.11" width="1.74" height="1.74"/><rect class="cls-2" x="201.47" y="97.71" width="1.74" height="1.74"/><rect class="cls-2" x="201.47" y="100.63" width="1.74" height="1.74"/><rect class="cls-2" x="201.47" y="103.55" width="1.74" height="1.74"/><rect class="cls-2" x="201.47" y="106.46" width="1.74" height="1.74"/><rect class="cls-2" x="201.47" y="109.38" width="1.74" height="1.74"/><rect class="cls-2" x="201.47" y="112.29" width="1.74" height="1.74"/><rect class="cls-2" x="201.47" y="115.21" width="1.74" height="1.74"/><rect class="cls-2" x="201.47" y="118.13" width="1.74" height="1.74"/><rect class="cls-2" x="201.47" y="126.87" width="1.74" height="1.74"/><rect class="cls-2" x="201.47" y="129.79" width="1.74" height="1.74"/><rect class="cls-2" x="204.24" y="97.71" width="1.74" height="1.74"/><rect class="cls-2" x="204.24" y="100.63" width="1.74" height="1.74"/><rect class="cls-2" x="204.24" y="103.55" width="1.74" height="1.74"/><rect class="cls-2" x="204.24" y="106.46" width="1.74" height="1.74"/><rect class="cls-2" x="204.24" y="109.38" width="1.74" height="1.74"/><rect class="cls-2" x="204.24" y="112.29" width="1.74" height="1.74"/><rect class="cls-2" x="204.24" y="115.21" width="1.74" height="1.74"/><rect class="cls-2" x="204.24" y="118.13" width="1.74" height="1.74"/><rect class="cls-2" x="204.24" y="129.79" width="1.74" height="1.74"/><rect class="cls-2" x="207" y="97.71" width="1.74" height="1.74"/><rect class="cls-2" x="207" y="100.63" width="1.74" height="1.74"/><rect class="cls-2" x="207" y="103.55" width="1.74" height="1.74"/><rect class="cls-2" x="207" y="106.46" width="1.74" height="1.74"/><rect class="cls-2" x="207" y="109.38" width="1.74" height="1.74"/><rect class="cls-2" x="207" y="112.29" width="1.74" height="1.74"/><rect class="cls-2" x="207" y="115.21" width="1.74" height="1.74"/><rect class="cls-2" x="207" y="118.13" width="1.74" height="1.74"/><rect class="cls-2" x="209.76" y="97.71" width="1.74" height="1.74"/><rect class="cls-2" x="209.76" y="100.63" width="1.74" height="1.74"/><rect class="cls-2" x="209.76" y="103.55" width="1.74" height="1.74"/><rect class="cls-2" x="209.76" y="106.46" width="1.74" height="1.74"/><rect class="cls-2" x="209.76" y="109.38" width="1.74" height="1.74"/><rect class="cls-2" x="209.76" y="112.29" width="1.74" height="1.74"/><rect class="cls-2" x="209.76" y="118.13" width="1.74" height="1.74"/><rect class="cls-2" x="209.76" y="121.04" width="1.74" height="1.74"/><rect class="cls-2" x="209.76" y="129.79" width="1.74" height="1.74"/><rect class="cls-2" x="209.76" y="132.71" width="1.74" height="1.74"/><rect class="cls-2" x="209.76" y="135.62" width="1.74" height="1.74"/><rect class="cls-2" x="209.76" y="138.54" width="1.74" height="1.74"/><rect class="cls-2" x="209.76" y="141.46" width="1.74" height="1.74"/><rect class="cls-2" x="209.76" y="144.37" width="1.74" height="1.74"/><rect class="cls-2" x="209.76" y="147.29" width="1.74" height="1.74"/><rect class="cls-2" x="212.52" y="97.71" width="1.74" height="1.74"/><rect class="cls-2" x="212.52" y="100.63" width="1.74" height="1.74"/><rect class="cls-2" x="212.52" y="103.55" width="1.74" height="1.74"/><rect class="cls-2" x="212.52" y="106.46" width="1.74" height="1.74"/><rect class="cls-2" x="212.52" y="109.38" width="1.74" height="1.74"/><rect class="cls-2" x="212.52" y="112.29" width="1.74" height="1.74"/><rect class="cls-2" x="212.52" y="121.04" width="1.74" height="1.74"/><rect class="cls-2" x="212.52" y="123.96" width="1.74" height="1.74"/><rect class="cls-2" x="212.52" y="126.87" width="1.74" height="1.74"/><rect class="cls-2" x="212.52" y="129.79" width="1.74" height="1.74"/><rect class="cls-2" x="212.52" y="132.71" width="1.74" height="1.74"/><rect class="cls-2" x="212.52" y="135.62" width="1.74" height="1.74"/><rect class="cls-2" x="212.52" y="138.54" width="1.74" height="1.74"/><rect class="cls-2" x="212.52" y="141.46" width="1.74" height="1.74"/><rect class="cls-2" x="212.52" y="144.37" width="1.74" height="1.74"/><rect class="cls-2" x="212.52" y="147.29" width="1.74" height="1.74"/><rect class="cls-2" x="212.52" y="150.2" width="1.74" height="1.74"/><rect class="cls-2" x="212.52" y="156.04" width="1.74" height="1.74"/><rect class="cls-2" x="215.29" y="97.71" width="1.74" height="1.74"/><rect class="cls-2" x="215.29" y="100.63" width="1.74" height="1.74"/><rect class="cls-2" x="215.29" y="103.55" width="1.74" height="1.74"/><rect class="cls-2" x="215.29" y="106.46" width="1.74" height="1.74"/><rect class="cls-2" x="215.29" y="109.38" width="1.74" height="1.74"/><rect class="cls-2" x="215.29" y="112.29" width="1.74" height="1.74"/><rect class="cls-2" x="215.29" y="121.04" width="1.74" height="1.74"/><rect class="cls-2" x="215.29" y="123.96" width="1.74" height="1.74"/><rect class="cls-2" x="215.29" y="126.87" width="1.74" height="1.74"/><rect class="cls-2" x="215.29" y="129.79" width="1.74" height="1.74"/><rect class="cls-2" x="215.29" y="138.54" width="1.74" height="1.74"/><rect class="cls-2" x="215.29" y="141.46" width="1.74" height="1.74"/><rect class="cls-2" x="215.29" y="144.37" width="1.74" height="1.74"/><rect class="cls-2" x="215.29" y="147.29" width="1.74" height="1.74"/><rect class="cls-2" x="215.29" y="150.2" width="1.74" height="1.74"/><rect class="cls-2" x="215.29" y="156.04" width="1.74" height="1.74"/><rect class="cls-2" x="215.29" y="158.95" width="1.74" height="1.74"/><rect class="cls-2" x="240.35" y="124.83" width="1.74" height="1.74"/><rect class="cls-2" x="240.35" y="127.74" width="1.74" height="1.74"/><rect class="cls-2" x="240.35" y="130.66" width="1.74" height="1.74"/><rect class="cls-2" x="240.35" y="133.58" width="1.74" height="1.74"/><rect class="cls-2" x="240.35" y="136.49" width="1.74" height="1.74"/><rect class="cls-2" x="240.35" y="139.41" width="1.74" height="1.74"/><rect class="cls-2" x="240.35" y="142.32" width="1.74" height="1.74"/><rect class="cls-2" x="240.35" y="151.07" width="1.74" height="1.74"/><rect class="cls-2" x="240.35" y="153.99" width="1.74" height="1.74"/><rect class="cls-2" x="240.35" y="156.91" width="1.74" height="1.74"/><rect class="cls-2" x="243.12" y="124.83" width="1.74" height="1.74"/><rect class="cls-2" x="243.12" y="127.74" width="1.74" height="1.74"/><rect class="cls-2" x="243.12" y="130.66" width="1.74" height="1.74"/><rect class="cls-2" x="243.12" y="133.58" width="1.74" height="1.74"/><rect class="cls-2" x="243.12" y="136.49" width="1.74" height="1.74"/><rect class="cls-2" x="243.12" y="139.41" width="1.74" height="1.74"/><rect class="cls-2" x="243.12" y="142.32" width="1.74" height="1.74"/><rect class="cls-2" x="245.88" y="124.83" width="2.5" height="1.74"/><rect class="cls-2" x="245.88" y="127.74" width="2.5" height="1.74"/><rect class="cls-2" x="245.88" y="130.66" width="2.5" height="1.74"/><rect class="cls-2" x="245.88" y="133.58" width="2.5" height="1.74"/><rect class="cls-2" x="245.88" y="136.49" width="2.5" height="1.74"/><rect class="cls-2" x="245.88" y="139.41" width="2.5" height="1.74"/><rect class="cls-2" x="245.88" y="142.32" width="2.5" height="1.74"/><rect class="cls-2" x="93.94" y="128.61" width="1.74" height="1.74"/><rect class="cls-2" x="93.94" y="131.53" width="1.74" height="1.74"/><rect class="cls-2" x="93.94" y="134.45" width="1.74" height="1.74"/><rect class="cls-2" x="93.94" y="137.36" width="1.74" height="1.74"/><rect class="cls-2" x="93.94" y="140.28" width="1.74" height="1.74"/><rect class="cls-2" x="93.94" y="143.19" width="1.74" height="1.74"/><rect class="cls-2" x="93.94" y="146.11" width="1.74" height="1.74"/><rect class="cls-2" x="93.94" y="149.03" width="1.74" height="1.74"/><rect class="cls-2" x="93.94" y="151.94" width="1.74" height="1.74"/><rect class="cls-2" x="93.94" y="154.86" width="1.74" height="1.74"/><rect class="cls-2" x="93.94" y="157.77" width="1.74" height="1.74"/><rect class="cls-2" x="93.94" y="160.69" width="1.74" height="1.74"/><rect class="cls-2" x="93.94" y="163.61" width="1.74" height="1.74"/><rect class="cls-2" x="93.94" y="166.52" width="1.74" height="1.74"/><rect class="cls-2" x="93.94" y="169.44" width="1.74" height="1.74"/><rect class="cls-2" x="93.94" y="172.36" width="1.74" height="1.74"/><rect class="cls-2" x="93.94" y="175.27" width="1.74" height="1.74"/><rect class="cls-2" x="93.94" y="178.19" width="1.74" height="1.74"/><rect class="cls-2" x="93.94" y="181.1" width="1.74" height="1.74"/><rect class="cls-2" x="93.94" y="184.02" width="1.74" height="1.74"/><rect class="cls-2" x="96.7" y="128.61" width="1.74" height="1.74"/><rect class="cls-2" x="96.7" y="131.53" width="1.74" height="1.74"/><rect class="cls-2" x="96.7" y="134.45" width="1.74" height="1.74"/><rect class="cls-2" x="96.7" y="137.36" width="1.74" height="1.74"/><rect class="cls-2" x="96.7" y="140.28" width="1.74" height="1.74"/><rect class="cls-2" x="96.7" y="143.19" width="1.74" height="1.74"/><rect class="cls-2" x="96.7" y="146.11" width="1.74" height="1.74"/><rect class="cls-2" x="96.7" y="149.03" width="1.74" height="1.74"/><rect class="cls-2" x="96.7" y="151.94" width="1.74" height="1.74"/><rect class="cls-2" x="96.7" y="154.86" width="1.74" height="1.74"/><rect class="cls-2" x="96.7" y="157.77" width="1.74" height="1.74"/><rect class="cls-2" x="96.7" y="160.69" width="1.74" height="1.74"/><rect class="cls-2" x="96.7" y="163.61" width="1.74" height="1.74"/><rect class="cls-2" x="96.7" y="166.52" width="1.74" height="1.74"/><rect class="cls-2" x="96.7" y="169.44" width="1.74" height="1.74"/><rect class="cls-2" x="96.7" y="172.36" width="1.74" height="1.74"/><rect class="cls-2" x="96.7" y="175.27" width="1.74" height="1.74"/><rect class="cls-2" x="96.7" y="178.19" width="1.74" height="1.74"/><rect class="cls-2" x="99.46" y="128.61" width="1.74" height="1.74"/><rect class="cls-2" x="99.46" y="131.53" width="1.74" height="1.74"/><rect class="cls-2" x="99.46" y="134.45" width="1.74" height="1.74"/><rect class="cls-2" x="99.46" y="137.36" width="1.74" height="1.74"/><rect class="cls-2" x="99.46" y="140.28" width="1.74" height="1.74"/><rect class="cls-2" x="99.46" y="143.19" width="1.74" height="1.74"/><rect class="cls-2" x="99.46" y="146.11" width="1.74" height="1.74"/><rect class="cls-2" x="99.46" y="149.03" width="1.74" height="1.74"/><rect class="cls-2" x="99.46" y="151.94" width="1.74" height="1.74"/><rect class="cls-2" x="99.46" y="154.86" width="1.74" height="1.74"/><rect class="cls-2" x="99.46" y="157.77" width="1.74" height="1.74"/><rect class="cls-2" x="99.46" y="160.69" width="1.74" height="1.74"/><rect class="cls-2" x="99.46" y="163.61" width="1.74" height="1.74"/><rect class="cls-2" x="99.46" y="166.52" width="1.74" height="1.74"/><rect class="cls-2" x="99.46" y="169.44" width="1.74" height="1.74"/><rect class="cls-2" x="99.46" y="172.36" width="1.74" height="1.74"/><rect class="cls-2" x="99.46" y="175.27" width="1.74" height="1.74"/><rect class="cls-2" x="99.46" y="178.19" width="1.74" height="1.74"/><rect class="cls-2" x="83.6" y="149.9" width="1.74" height="1.74"/><rect class="cls-2" x="83.6" y="152.81" width="1.74" height="1.74"/><rect class="cls-2" x="83.6" y="155.73" width="1.74" height="1.74"/><rect class="cls-2" x="83.6" y="158.64" width="1.74" height="1.74"/><rect class="cls-2" x="83.6" y="161.56" width="1.74" height="1.74"/><rect class="cls-2" x="83.6" y="164.48" width="1.74" height="1.74"/><rect class="cls-2" x="83.6" y="167.39" width="1.74" height="1.74"/><rect class="cls-2" x="83.6" y="170.31" width="1.74" height="1.74"/><rect class="cls-2" x="83.6" y="173.22" width="1.74" height="1.74"/><rect class="cls-2" x="83.6" y="176.14" width="1.74" height="1.74"/><rect class="cls-2" x="83.6" y="179.06" width="1.74" height="1.74"/><rect class="cls-2" x="83.6" y="181.97" width="1.74" height="1.74"/><rect class="cls-2" x="83.6" y="184.89" width="1.74" height="1.74"/><rect class="cls-2" x="86.36" y="149.9" width="1.74" height="1.74"/><rect class="cls-2" x="86.36" y="152.81" width="1.74" height="1.74"/><rect class="cls-2" x="86.36" y="155.73" width="1.74" height="1.74"/><rect class="cls-2" x="86.36" y="158.64" width="1.74" height="1.74"/><rect class="cls-2" x="86.36" y="161.56" width="1.74" height="1.74"/><rect class="cls-2" x="86.36" y="164.48" width="1.74" height="1.74"/><rect class="cls-2" x="86.36" y="167.39" width="1.74" height="1.74"/><rect class="cls-2" x="86.36" y="170.31" width="1.74" height="1.74"/><rect class="cls-2" x="86.36" y="173.22" width="1.74" height="1.74"/><rect class="cls-2" x="86.36" y="176.14" width="1.74" height="1.74"/><rect class="cls-2" x="86.36" y="179.06" width="1.74" height="1.74"/><rect class="cls-2" x="86.36" y="181.97" width="1.74" height="1.74"/><rect class="cls-2" x="86.36" y="184.89" width="1.74" height="1.74"/><rect class="cls-2" x="89.13" y="149.9" width="1.74" height="1.74"/><rect class="cls-2" x="89.13" y="152.81" width="1.74" height="1.74"/><rect class="cls-2" x="89.13" y="155.73" width="1.74" height="1.74"/><rect class="cls-2" x="89.13" y="158.64" width="1.74" height="1.74"/><rect class="cls-2" x="89.13" y="161.56" width="1.74" height="1.74"/><rect class="cls-2" x="89.13" y="164.48" width="1.74" height="1.74"/><rect class="cls-2" x="89.13" y="167.39" width="1.74" height="1.74"/><rect class="cls-2" x="89.13" y="170.31" width="1.74" height="1.74"/><rect class="cls-2" x="89.13" y="173.22" width="1.74" height="1.74"/><rect class="cls-2" x="89.13" y="176.14" width="1.74" height="1.74"/><rect class="cls-2" x="89.13" y="179.06" width="1.74" height="1.74"/><rect class="cls-2" x="89.13" y="181.97" width="1.74" height="1.74"/><rect class="cls-2" x="89.13" y="184.89" width="1.74" height="1.74"/><rect class="cls-2" x="89.13" y="187.81" width="1.74" height="1.74"/><rect class="cls-2" x="104.48" y="150.77" width="1.74" height="1.74"/><rect class="cls-2" x="104.48" y="153.68" width="1.74" height="1.74"/><rect class="cls-2" x="104.48" y="156.6" width="1.74" height="1.74"/><rect class="cls-2" x="104.48" y="159.51" width="1.74" height="1.74"/><rect class="cls-2" x="104.48" y="162.43" width="1.74" height="1.74"/><rect class="cls-2" x="104.48" y="165.35" width="1.74" height="1.74"/><rect class="cls-2" x="104.48" y="168.26" width="1.74" height="1.74"/><rect class="cls-2" x="104.48" y="171.18" width="1.74" height="1.74"/><rect class="cls-2" x="104.48" y="174.09" width="1.74" height="1.74"/><rect class="cls-2" x="104.48" y="177.01" width="1.74" height="1.74"/><rect class="cls-2" x="104.48" y="185.76" width="1.74" height="1.74"/><rect class="cls-2" x="107.24" y="150.77" width="1.74" height="1.74"/><rect class="cls-2" x="107.24" y="153.68" width="1.74" height="1.74"/><rect class="cls-2" x="107.24" y="156.6" width="1.74" height="1.74"/><rect class="cls-2" x="107.24" y="159.51" width="1.74" height="1.74"/><rect class="cls-2" x="107.24" y="162.43" width="1.74" height="1.74"/><rect class="cls-2" x="107.24" y="165.35" width="1.74" height="1.74"/><rect class="cls-2" x="107.24" y="168.26" width="1.74" height="1.74"/><rect class="cls-2" x="107.24" y="171.18" width="1.74" height="1.74"/><rect class="cls-2" x="107.24" y="174.09" width="1.74" height="1.74"/><rect class="cls-2" x="107.24" y="182.84" width="1.74" height="1.74"/><rect class="cls-2" x="107.24" y="185.76" width="1.74" height="1.74"/><rect class="cls-2" x="110" y="150.77" width="1.74" height="1.74"/><rect class="cls-2" x="110" y="153.68" width="1.74" height="1.74"/><rect class="cls-2" x="110" y="156.6" width="1.74" height="1.74"/><rect class="cls-2" x="110" y="159.51" width="1.74" height="1.74"/><rect class="cls-2" x="110" y="162.43" width="1.74" height="1.74"/><rect class="cls-2" x="110" y="165.35" width="1.74" height="1.74"/><rect class="cls-2" x="110" y="168.26" width="1.74" height="1.74"/><rect class="cls-2" x="110" y="171.18" width="1.74" height="1.74"/><rect class="cls-2" x="110" y="179.93" width="1.74" height="1.74"/><rect class="cls-2" x="110" y="182.84" width="1.74" height="1.74"/><rect class="cls-2" x="110" y="185.76" width="1.74" height="1.74"/><rect class="cls-2" x="135.68" y="106.46" width="1.74" height="1.74"/><rect class="cls-2" x="135.68" y="109.38" width="1.74" height="1.74"/><rect class="cls-2" x="135.68" y="112.29" width="1.74" height="1.74"/><rect class="cls-2" x="135.68" y="115.21" width="1.74" height="1.74"/><rect class="cls-2" x="135.68" y="118.13" width="1.74" height="1.74"/><rect class="cls-2" x="135.68" y="121.04" width="1.74" height="1.74"/><rect class="cls-2" x="135.68" y="123.96" width="1.74" height="1.74"/><rect class="cls-2" x="135.68" y="126.87" width="1.74" height="1.74"/><rect class="cls-2" x="135.68" y="129.79" width="1.74" height="1.74"/><rect class="cls-2" x="135.68" y="132.71" width="1.74" height="1.74"/><rect class="cls-2" x="135.68" y="135.62" width="1.74" height="1.74"/><rect class="cls-2" x="135.68" y="138.54" width="1.74" height="1.74"/><rect class="cls-2" x="135.68" y="141.46" width="1.74" height="1.74"/><rect class="cls-2" x="135.68" y="144.37" width="1.74" height="1.74"/><rect class="cls-2" x="135.68" y="147.29" width="1.74" height="1.74"/><rect class="cls-2" x="135.68" y="150.2" width="1.74" height="1.74"/><rect class="cls-2" x="135.68" y="153.12" width="1.74" height="1.74"/><rect class="cls-2" x="135.68" y="158.95" width="1.74" height="1.74"/><rect class="cls-2" x="135.68" y="161.87" width="1.74" height="1.74"/><rect class="cls-2" x="135.68" y="164.78" width="1.74" height="1.74"/><rect class="cls-2" x="135.68" y="167.7" width="1.74" height="1.74"/><rect class="cls-2" x="135.68" y="170.62" width="1.74" height="1.74"/><rect class="cls-2" x="138.44" y="106.46" width="1.74" height="1.74"/><rect class="cls-2" x="138.44" y="109.38" width="1.74" height="1.74"/><rect class="cls-2" x="138.44" y="112.29" width="1.74" height="1.74"/><rect class="cls-2" x="138.44" y="115.21" width="1.74" height="1.74"/><rect class="cls-2" x="138.44" y="118.13" width="1.74" height="1.74"/><rect class="cls-2" x="138.44" y="121.04" width="1.74" height="1.74"/><rect class="cls-2" x="138.44" y="123.96" width="1.74" height="1.74"/><rect class="cls-2" x="138.44" y="126.87" width="1.74" height="1.74"/><rect class="cls-2" x="138.44" y="129.79" width="1.74" height="1.74"/><rect class="cls-2" x="138.44" y="132.71" width="1.74" height="1.74"/><rect class="cls-2" x="138.44" y="135.62" width="1.74" height="1.74"/><rect class="cls-2" x="138.44" y="138.54" width="1.74" height="1.74"/><rect class="cls-2" x="138.44" y="141.46" width="1.74" height="1.74"/><rect class="cls-2" x="138.44" y="144.37" width="1.74" height="1.74"/><rect class="cls-2" x="138.44" y="147.29" width="1.74" height="1.74"/><rect class="cls-2" x="138.44" y="150.2" width="1.74" height="1.74"/><rect class="cls-2" x="138.44" y="167.7" width="1.74" height="1.74"/><rect class="cls-2" x="138.44" y="170.62" width="1.74" height="1.74"/><rect class="cls-2" x="141.21" y="106.46" width="1.74" height="1.74"/><rect class="cls-2" x="141.21" y="109.38" width="1.74" height="1.74"/><rect class="cls-2" x="141.21" y="112.29" width="1.74" height="1.74"/><rect class="cls-2" x="141.21" y="115.21" width="1.74" height="1.74"/><rect class="cls-2" x="141.21" y="118.13" width="1.74" height="1.74"/><rect class="cls-2" x="141.21" y="121.04" width="1.74" height="1.74"/><rect class="cls-2" x="141.21" y="123.96" width="1.74" height="1.74"/><rect class="cls-2" x="141.21" y="126.87" width="1.74" height="1.74"/><rect class="cls-2" x="141.21" y="129.79" width="1.74" height="1.74"/><rect class="cls-2" x="141.21" y="132.71" width="1.74" height="1.74"/><rect class="cls-2" x="141.21" y="135.62" width="1.74" height="1.74"/><rect class="cls-2" x="141.21" y="138.54" width="1.74" height="1.74"/><rect class="cls-2" x="141.21" y="141.46" width="1.74" height="1.74"/><rect class="cls-2" x="141.21" y="144.37" width="1.74" height="1.74"/><rect class="cls-2" x="141.21" y="147.29" width="1.74" height="1.74"/><rect class="cls-2" x="141.21" y="150.2" width="1.74" height="1.74"/><rect class="cls-2" x="141.21" y="156.04" width="1.74" height="1.74"/><rect class="cls-2" x="141.21" y="158.95" width="1.74" height="1.74"/><rect class="cls-2" x="141.21" y="161.87" width="1.74" height="1.74"/><rect class="cls-2" x="141.21" y="164.78" width="1.74" height="1.74"/><rect class="cls-2" x="141.21" y="170.62" width="1.74" height="1.74"/><rect class="cls-2" x="125.65" y="143.19" width="1.74" height="1.74"/><rect class="cls-2" x="125.65" y="146.11" width="1.74" height="1.74"/><rect class="cls-2" x="125.65" y="149.03" width="1.74" height="1.74"/><rect class="cls-2" x="125.65" y="151.94" width="1.74" height="1.74"/><rect class="cls-2" x="125.65" y="154.86" width="1.74" height="1.74"/><rect class="cls-2" x="125.65" y="157.77" width="1.74" height="1.74"/><rect class="cls-2" x="125.65" y="160.69" width="1.74" height="1.74"/><rect class="cls-2" x="125.65" y="166.52" width="1.74" height="1.74"/><rect class="cls-2" x="125.65" y="169.44" width="1.74" height="1.74"/><rect class="cls-2" x="125.65" y="172.36" width="1.74" height="1.74"/><rect class="cls-2" x="125.65" y="175.27" width="1.74" height="1.74"/><rect class="cls-2" x="125.65" y="178.19" width="1.74" height="1.74"/><rect class="cls-2" x="125.65" y="181.1" width="1.74" height="1.74"/><rect class="cls-2" x="125.65" y="184.02" width="1.74" height="1.74"/><rect class="cls-2" x="125.65" y="186.94" width="1.74" height="1.74"/><rect class="cls-2" x="128.42" y="143.19" width="1.74" height="1.74"/><rect class="cls-2" x="128.42" y="146.11" width="1.74" height="1.74"/><rect class="cls-2" x="128.42" y="149.03" width="1.74" height="1.74"/><rect class="cls-2" x="128.42" y="151.94" width="1.74" height="1.74"/><rect class="cls-2" x="128.42" y="154.86" width="1.74" height="1.74"/><rect class="cls-2" x="128.42" y="157.77" width="1.74" height="1.74"/><rect class="cls-2" x="128.42" y="166.52" width="1.74" height="1.74"/><rect class="cls-2" x="128.42" y="169.44" width="1.74" height="1.74"/><rect class="cls-2" x="128.42" y="172.36" width="1.74" height="1.74"/><rect class="cls-2" x="128.42" y="175.27" width="1.74" height="1.74"/><rect class="cls-2" x="128.42" y="178.19" width="1.74" height="1.74"/><rect class="cls-2" x="128.42" y="181.1" width="1.74" height="1.74"/><rect class="cls-2" x="128.42" y="184.02" width="1.74" height="1.74"/><rect class="cls-2" x="128.42" y="186.94" width="1.74" height="1.74"/><rect class="cls-2" x="131.18" y="143.19" width="1.74" height="1.74"/><rect class="cls-2" x="131.18" y="146.11" width="1.74" height="1.74"/><rect class="cls-2" x="131.18" y="149.03" width="1.74" height="1.74"/><rect class="cls-2" x="131.18" y="151.94" width="1.74" height="1.74"/><rect class="cls-2" x="131.18" y="154.86" width="1.74" height="1.74"/><rect class="cls-2" x="131.18" y="157.77" width="1.74" height="1.74"/><rect class="cls-2" x="131.18" y="163.61" width="1.74" height="1.74"/><rect class="cls-2" x="131.18" y="166.52" width="1.74" height="1.74"/><rect class="cls-2" x="131.18" y="169.44" width="1.74" height="1.74"/><rect class="cls-2" x="131.18" y="172.36" width="1.74" height="1.74"/><rect class="cls-2" x="131.18" y="175.27" width="1.74" height="1.74"/><rect class="cls-2" x="131.18" y="178.19" width="1.74" height="1.74"/><rect class="cls-2" x="131.18" y="181.1" width="1.74" height="1.74"/><rect class="cls-2" x="131.18" y="184.02" width="1.74" height="1.74"/><rect class="cls-2" x="131.18" y="186.94" width="1.74" height="1.74"/><rect class="cls-2" x="189.4" y="126.87" width="1.74" height="1.74"/><rect class="cls-2" x="189.4" y="129.79" width="1.74" height="1.74"/><rect class="cls-2" x="189.4" y="132.71" width="1.74" height="1.74"/><rect class="cls-2" x="189.4" y="135.62" width="1.74" height="1.74"/><rect class="cls-2" x="189.4" y="138.54" width="1.74" height="1.74"/><rect class="cls-2" x="189.4" y="141.46" width="1.74" height="1.74"/><rect class="cls-2" x="189.4" y="144.37" width="1.74" height="1.74"/><rect class="cls-2" x="189.4" y="147.29" width="1.74" height="1.74"/><rect class="cls-2" x="189.4" y="150.2" width="1.74" height="1.74"/><rect class="cls-2" x="189.4" y="153.12" width="1.74" height="1.74"/><rect class="cls-2" x="189.4" y="156.04" width="1.74" height="1.74"/><rect class="cls-2" x="189.4" y="158.95" width="1.74" height="1.74"/><rect class="cls-2" x="189.4" y="161.87" width="1.74" height="1.74"/><rect class="cls-2" x="189.4" y="167.7" width="1.74" height="1.74"/><rect class="cls-2" x="189.4" y="170.62" width="1.74" height="1.74"/><rect class="cls-2" x="189.4" y="173.53" width="1.74" height="1.74"/><rect class="cls-2" x="189.4" y="176.45" width="1.74" height="1.74"/><rect class="cls-2" x="189.4" y="182.28" width="1.74" height="1.74"/><rect class="cls-2" x="189.4" y="185.2" width="1.74" height="1.74"/><rect class="cls-2" x="189.4" y="188.11" width="1.74" height="1.74"/><rect class="cls-2" x="192.16" y="126.87" width="1.74" height="1.74"/><rect class="cls-2" x="192.16" y="129.79" width="1.74" height="1.74"/><rect class="cls-2" x="192.16" y="132.71" width="1.74" height="1.74"/><rect class="cls-2" x="192.16" y="135.62" width="1.74" height="1.74"/><rect class="cls-2" x="192.16" y="138.54" width="1.74" height="1.74"/><rect class="cls-2" x="192.16" y="141.46" width="1.74" height="1.74"/><rect class="cls-2" x="192.16" y="144.37" width="1.74" height="1.74"/><rect class="cls-2" x="192.16" y="147.29" width="1.74" height="1.74"/><rect class="cls-2" x="192.16" y="150.2" width="1.74" height="1.74"/><rect class="cls-2" x="192.16" y="153.12" width="1.74" height="1.74"/><rect class="cls-2" x="192.16" y="156.04" width="1.74" height="1.74"/><rect class="cls-2" x="192.16" y="158.95" width="1.74" height="1.74"/><rect class="cls-2" x="192.16" y="161.87" width="1.74" height="1.74"/><rect class="cls-2" x="192.16" y="170.62" width="1.74" height="1.74"/><rect class="cls-2" x="192.16" y="173.53" width="1.74" height="1.74"/><rect class="cls-2" x="192.16" y="179.36" width="1.74" height="1.74"/><rect class="cls-2" x="192.16" y="182.28" width="1.74" height="1.74"/><rect class="cls-2" x="192.16" y="185.2" width="1.74" height="1.74"/><rect class="cls-2" x="192.16" y="188.11" width="1.74" height="1.74"/><rect class="cls-2" x="194.92" y="126.87" width="1.74" height="1.74"/><rect class="cls-2" x="194.92" y="129.79" width="1.74" height="1.74"/><rect class="cls-2" x="194.92" y="132.71" width="1.74" height="1.74"/><rect class="cls-2" x="194.92" y="135.62" width="1.74" height="1.74"/><rect class="cls-2" x="194.92" y="138.54" width="1.74" height="1.74"/><rect class="cls-2" x="194.92" y="141.46" width="1.74" height="1.74"/><rect class="cls-2" x="194.92" y="144.37" width="1.74" height="1.74"/><rect class="cls-2" x="194.92" y="147.29" width="1.74" height="1.74"/><rect class="cls-2" x="194.92" y="150.2" width="1.74" height="1.74"/><rect class="cls-2" x="194.92" y="153.12" width="1.74" height="1.74"/><rect class="cls-2" x="194.92" y="156.04" width="1.74" height="1.74"/><rect class="cls-2" x="194.92" y="158.95" width="1.74" height="1.74"/><rect class="cls-2" x="194.92" y="161.87" width="1.74" height="1.74"/><rect class="cls-2" x="194.92" y="164.78" width="1.74" height="1.74"/><rect class="cls-2" x="194.92" y="170.62" width="1.74" height="1.74"/><rect class="cls-2" x="194.92" y="176.45" width="1.74" height="1.74"/><rect class="cls-2" x="194.92" y="179.36" width="1.74" height="1.74"/><rect class="cls-2" x="194.92" y="182.28" width="1.74" height="1.74"/><rect class="cls-2" x="194.92" y="185.2" width="1.74" height="1.74"/><rect class="cls-2" x="194.92" y="188.11" width="1.74" height="1.74"/><rect class="cls-2" x="178.14" y="143.5" width="1.74" height="1.74"/><rect class="cls-2" x="178.14" y="146.42" width="1.74" height="1.74"/><rect class="cls-2" x="178.14" y="149.33" width="1.74" height="1.74"/><rect class="cls-2" x="178.14" y="152.25" width="1.74" height="1.74"/><rect class="cls-2" x="178.14" y="155.17" width="1.74" height="1.74"/><rect class="cls-2" x="178.14" y="158.08" width="1.74" height="1.74"/><rect class="cls-2" x="178.14" y="166.83" width="1.74" height="1.74"/><rect class="cls-2" x="178.14" y="169.75" width="1.74" height="1.74"/><rect class="cls-2" x="178.14" y="172.66" width="1.74" height="1.74"/><rect class="cls-2" x="178.14" y="175.58" width="1.74" height="1.74"/><rect class="cls-2" x="178.14" y="178.49" width="1.74" height="1.74"/><rect class="cls-2" x="178.14" y="181.41" width="1.74" height="1.74"/><rect class="cls-2" x="178.14" y="184.33" width="1.74" height="1.74"/><rect class="cls-2" x="180.91" y="143.5" width="1.74" height="1.74"/><rect class="cls-2" x="180.91" y="146.42" width="1.74" height="1.74"/><rect class="cls-2" x="180.91" y="149.33" width="1.74" height="1.74"/><rect class="cls-2" x="180.91" y="152.25" width="1.74" height="1.74"/><rect class="cls-2" x="180.91" y="155.17" width="1.74" height="1.74"/><rect class="cls-2" x="180.91" y="158.08" width="1.74" height="1.74"/><rect class="cls-2" x="180.91" y="166.83" width="1.74" height="1.74"/><rect class="cls-2" x="180.91" y="169.75" width="1.74" height="1.74"/><rect class="cls-2" x="180.91" y="172.66" width="1.74" height="1.74"/><rect class="cls-2" x="180.91" y="175.58" width="1.74" height="1.74"/><rect class="cls-2" x="180.91" y="178.49" width="1.74" height="1.74"/><rect class="cls-2" x="180.91" y="181.41" width="1.74" height="1.74"/><rect class="cls-2" x="180.91" y="187.24" width="1.74" height="1.74"/><rect class="cls-1" x="245.4" y="48.15" width="3.45" height="189.49"/><rect class="cls-1" x="190.48" y="48.15" width="2.92" height="189.49"/><rect class="cls-1" x="135.56" y="48.15" width="2.92" height="189.49"/><circle class="cls-4" cx="344.9" cy="41.48" r="14.17"/><path class="cls-3" d="M356.94,41.48a12,12,0,1,1-12-12A12,12,0,0,1,356.94,41.48Z"/><polyline class="cls-5" points="344.33 33.22 344.33 41.64 338.75 38.48"/><rect class="cls-6" x="352.98" y="64.35" width="62.64" height="82.68"/><polygon class="cls-1" points="374.29 73.15 374.29 109.5 388.77 108.68 390.43 73.15 374.29 73.15"/><polygon class="cls-4" points="386.01 80.18 408.29 80.18 408.1 112 396.56 112.18 386.01 80.18"/><polygon class="cls-7" points="364.32 75.49 370.18 75.49 368.13 103.88 360.8 105.69 364.32 75.49"/><rect class="cls-7" x="281.36" y="81.13" width="62.44" height="75.98" transform="translate(625.16 238.25) rotate(180)"/><polygon class="cls-4" points="295.65 138.3 328.46 106.05 292.96 100.19 295.65 138.3"/><polygon class="cls-3" points="327.67 130.65 329.29 105.92 304.59 111.99 302.79 130.91 327.67 130.65"/><circle class="cls-2" cx="295.35" cy="95.85" r="9.97" transform="translate(18.73 236.92) rotate(-45)"/><path class="cls-4" d="M324.44,139.47a4.84,4.84,0,1,1,4.84,4.84A4.84,4.84,0,0,1,324.44,139.47Z"/><polygon class="cls-6" points="328.13 147.97 314.16 139.47 325.9 129.79 328.13 147.97"/><rect class="cls-4" x="308.89" y="90.8" width="2.75" height="60.67"/><rect class="cls-1" x="334.39" y="90.8" width="3.55" height="57.99"/><rect class="cls-1" x="287.63" y="130.91" width="18.15" height="18.15"/><rect class="cls-7" x="345.77" y="258.43" width="65.62" height="59.63"/><rect class="cls-7" x="413.17" y="253.17" width="8.25" height="74.05"/><rect class="cls-2" x="356.22" y="263.99" width="5.38" height="21.39"/><rect class="cls-6" x="378.51" y="263.99" width="5.38" height="21.39"/><rect class="cls-6" x="361.59" y="265.84" width="5.38" height="19.54"/><rect class="cls-2" x="373.13" y="265.84" width="5.38" height="19.54"/><rect class="cls-1" x="369.66" y="263.99" width="3.47" height="21.39"/><rect class="cls-2" x="366.97" y="265.84" width="2.69" height="19.54"/><rect class="cls-1" x="383.89" y="263.99" width="5.38" height="21.39"/><rect class="cls-7" x="389.27" y="265.84" width="5.38" height="19.54"/><rect class="cls-7" x="400.81" y="265.84" width="5.38" height="19.54"/><rect class="cls-2" x="397.33" y="263.99" width="3.47" height="21.39"/><rect class="cls-1" x="394.64" y="265.84" width="2.69" height="19.54"/><rect class="cls-2" x="406.18" y="264.61" width="2.69" height="20.77"/><rect class="cls-2" x="403.49" y="294.36" width="5.38" height="20.39" transform="translate(812.37 609.12) rotate(180)"/><rect class="cls-2" x="381.2" y="294.36" width="5.38" height="20.39" transform="translate(767.78 609.12) rotate(180)"/><rect class="cls-3" x="398.12" y="296.22" width="5.38" height="18.54" transform="translate(801.61 610.97) rotate(180)"/><rect class="cls-1" x="386.58" y="296.22" width="5.38" height="18.54" transform="translate(778.53 610.97) rotate(180)"/><rect class="cls-2" x="391.95" y="294.36" width="3.47" height="20.39" transform="translate(787.38 609.12) rotate(180)"/><rect class="cls-6" x="395.43" y="296.22" width="2.69" height="18.54" transform="translate(793.55 610.97) rotate(180)"/><rect class="cls-1" x="375.82" y="294.36" width="5.38" height="20.39" transform="translate(757.02 609.12) rotate(180)"/><rect class="cls-6" x="370.45" y="296.22" width="5.38" height="18.54" transform="translate(746.27 610.97) rotate(180)"/><rect class="cls-7" x="358.91" y="296.22" width="5.38" height="18.54" transform="translate(723.19 610.97) rotate(180)"/><rect class="cls-2" x="364.28" y="294.36" width="3.47" height="20.39" transform="translate(732.04 609.12) rotate(180)"/><rect class="cls-2" x="352.74" y="294.36" width="3.47" height="20.39" transform="translate(708.96 609.12) rotate(180)"/><rect class="cls-1" x="367.76" y="296.22" width="2.69" height="18.54" transform="translate(738.2 610.97) rotate(180)"/><rect class="cls-3" x="356.22" y="294.99" width="2.69" height="19.77" transform="translate(715.12 609.74) rotate(180)"/><path class="cls-3" d="M411.06,253.17H343.69v69.28h65.17v4.77h4.4V253.17Zm-2.2,61.58h-61V289.81h61Zm0-29.34h-61V260.87h61Z"/><rect class="cls-7" x="280.04" y="258.43" width="65.62" height="59.63" transform="translate(625.71 576.48) rotate(180)"/><rect class="cls-7" x="282.56" y="321.59" width="8.25" height="5.63" transform="translate(573.38 648.81) rotate(180)"/><rect class="cls-2" x="338.08" y="263.99" width="5.38" height="21.39" transform="translate(681.53 549.37) rotate(180)"/><rect class="cls-6" x="315.78" y="263.99" width="5.38" height="21.39" transform="translate(636.94 549.37) rotate(180)"/><rect class="cls-6" x="332.7" y="265.84" width="5.38" height="19.54" transform="translate(670.78 551.22) rotate(180)"/><rect class="cls-2" x="321.16" y="265.84" width="5.38" height="19.54" transform="translate(647.7 551.22) rotate(180)"/><rect class="cls-1" x="326.54" y="263.99" width="3.47" height="21.39" transform="translate(656.55 549.37) rotate(180)"/><rect class="cls-2" x="330.01" y="265.84" width="2.69" height="19.54" transform="translate(662.71 551.22) rotate(180)"/><rect class="cls-1" x="313.95" y="263.99" width="5.38" height="21.39" transform="translate(633.28 549.37) rotate(180)"/><rect class="cls-7" x="308.57" y="265.84" width="5.38" height="19.54" transform="translate(622.52 551.22) rotate(180)"/><rect class="cls-7" x="297.03" y="265.84" width="5.38" height="19.54" transform="translate(599.44 551.22) rotate(180)"/><rect class="cls-2" x="302.41" y="263.99" width="3.47" height="21.39" transform="translate(608.3 549.37) rotate(180)"/><rect class="cls-1" x="305.89" y="265.84" width="2.69" height="19.54" transform="translate(614.46 551.22) rotate(180)"/><rect class="cls-6" x="294.34" y="264.61" width="2.69" height="20.77" transform="translate(591.38 549.99) rotate(180)"/><rect class="cls-2" x="291.82" y="294.36" width="5.38" height="20.39"/><rect class="cls-2" x="314.11" y="294.36" width="5.38" height="20.39"/><rect class="cls-6" x="297.2" y="296.22" width="5.38" height="18.54"/><rect class="cls-1" x="308.74" y="296.22" width="5.38" height="18.54"/><rect class="cls-2" x="305.26" y="294.36" width="3.47" height="20.39"/><rect class="cls-6" x="302.57" y="296.22" width="2.69" height="18.54"/><rect class="cls-1" x="315.95" y="294.36" width="5.38" height="20.39"/><rect class="cls-6" x="321.32" y="296.22" width="5.38" height="18.54"/><rect class="cls-7" x="332.86" y="296.22" width="5.38" height="18.54"/><rect class="cls-2" x="329.39" y="294.36" width="3.47" height="20.39"/><rect class="cls-2" x="340.22" y="294.36" width="3.47" height="20.39"/><rect class="cls-1" x="326.7" y="296.22" width="2.69" height="18.54"/><rect class="cls-1" x="338.24" y="294.99" width="2.69" height="19.77"/><path class="cls-3" d="M278.17,253.17v74.05h4.4v-4.77h65.17V253.17H278.17Zm4.4,36.64h61v24.94h-61Zm0-28.94h61v24.54h-61Z"/><ellipse id="_Path_" data-name="&lt;Path&gt;" class="cls-6" cx="250" cy="361.29" rx="193.89" ry="11.32"/><path class="cls-8" d="M382.05,317.67s-7.76-9.23-12.72-4.92-2.45,13.43,3.27,13.72a14.34,14.34,0,0,0,9.45-2.88Z"/><path class="cls-9" d="M382.05,317.67s-7.76-9.23-12.72-4.92-2.45,13.43,3.27,13.72a14.34,14.34,0,0,0,9.45-2.88Z"/><path class="cls-8" d="M413.68,294.27s6.51-6.82,10.54-5.67,3.62,17.46-8.89,10.86Z"/><path class="cls-10" d="M413.68,294.27s6.51-6.82,10.54-5.67,3.62,17.46-8.89,10.86Z"/><path class="cls-8" d="M390.42,345.16s-21.4-29.27-4-35.2,20.47,23.55,15.51,31.76S390.42,345.16,390.42,345.16Z"/><path class="cls-8" d="M400.34,285.23s13.28-30.82-6.38-31.75-21.81,30.56.82,35.12Z"/><path class="cls-10" d="M390.42,345.16s-21.4-29.27-4-35.2,20.47,23.55,15.51,31.76S390.42,345.16,390.42,345.16Z"/><path class="cls-10" d="M400.34,285.23s13.28-30.82-6.38-31.75-21.81,30.56.82,35.12Z"/><path class="cls-8" d="M395.63,310.46s-6.45-27.21,6-29.38,24.65,22.41-1,34.77C400.57,315.85,396.17,313.12,395.63,310.46Z"/><path class="cls-9" d="M395.63,310.46s-6.45-27.21,6-29.38,24.65,22.41-1,34.77C400.57,315.85,396.17,313.12,395.63,310.46Z"/><polygon class="cls-11" points="375.02 341.01 410.94 341.01 407.94 364 378.02 364 375.02 341.01"/><path class="cls-8" d="M393.7,283a25.24,25.24,0,0,1-5-4.88,24.55,24.55,0,0,1-3.52-6.08,18.25,18.25,0,0,1-1.28-6.93,16.47,16.47,0,0,1,1.61-6.78c-.13.57-.25,1.14-.39,1.69l-.21.84c0,.28-.05.57-.08.85-.06.57-.15,1.13-.2,1.69l0,1.7a21.2,21.2,0,0,0,1.44,6.58,31.4,31.4,0,0,0,3.21,6,30.29,30.29,0,0,0,2.06,2.75C392.12,281.34,392.9,282.19,393.7,283Z"/><path class="cls-8" d="M389,256.58a12.52,12.52,0,0,1,3.22,1.1,14.63,14.63,0,0,1,6.83,7.53,19.94,19.94,0,0,1,1.38,6.71c0,1.14-.07,2.28-.12,3.41s-.35,2.24-.58,3.34c0-1.13.07-2.25.1-3.36s-.06-2.23-.17-3.33a27.06,27.06,0,0,0-.56-3.26c-.14-.53-.23-1.08-.4-1.59l-.57-1.54A16.18,16.18,0,0,0,389,256.58Z"/><path class="cls-8" d="M404,283a11.7,11.7,0,0,1,6.52,6.26,14.66,14.66,0,0,1,1.22,4.5,6.57,6.57,0,0,1,.06,1.18,9.41,9.41,0,0,1,0,1.19,12.89,12.89,0,0,1-.47,2.32,19.57,19.57,0,0,1-1.88,4.26,29.37,29.37,0,0,1-2.7,3.74,37.66,37.66,0,0,1-6.65,6.28c1.1-1.06,2.17-2.13,3.16-3.27a43.33,43.33,0,0,0,2.89-3.48,24.94,24.94,0,0,0,4.22-7.81,12.19,12.19,0,0,0,.46-2.14,9.75,9.75,0,0,0,0-1.08,6.67,6.67,0,0,0,0-1.09,15.11,15.11,0,0,0-1-4.3,12.41,12.41,0,0,0-2.3-3.77A11.8,11.8,0,0,0,404,283Z"/><path class="cls-8" d="M400.34,285.23a24.36,24.36,0,0,1,1.38,6.23,15.36,15.36,0,0,1,0,3.25,7.76,7.76,0,0,1-1,3.18,12.1,12.1,0,0,0-1.81,5.77,27.11,27.11,0,0,0-.15,3.13c0,1,0,2.11.07,3.17a24.16,24.16,0,0,1-.69-6.35,15.51,15.51,0,0,1,.4-3.23,10,10,0,0,1,.54-1.57,11.63,11.63,0,0,1,.79-1.45,6.84,6.84,0,0,0,.93-2.78,19.68,19.68,0,0,0,.2-3.08,29.89,29.89,0,0,0-.2-3.13C400.67,287.32,400.51,286.28,400.34,285.23Z"/><path class="cls-8" d="M391.62,312.75a2.93,2.93,0,0,1,1.33,1,10.24,10.24,0,0,1,.95,1.41,24.1,24.1,0,0,1,1.35,3.09,48.82,48.82,0,0,1,1.78,6.47c.45,2.19.81,4.39,1.05,6.61a43.73,43.73,0,0,1,.35,6.67c-.15-1.1-.32-2.2-.53-3.29s-.37-2.18-.58-3.27c-.41-2.18-.81-4.36-1.27-6.52s-.95-4.31-1.53-6.43a26,26,0,0,0-1-3.12,10.47,10.47,0,0,0-.73-1.46A3.22,3.22,0,0,0,391.62,312.75Z"/><path class="cls-8" d="M385.54,313.69a28.21,28.21,0,0,0-1,6.07,23.11,23.11,0,0,0,.44,6.05,19.92,19.92,0,0,0,2,5.69,29.09,29.09,0,0,0,3.43,5.11l-1.15-1.06a11.63,11.63,0,0,1-1.1-1.12,16.56,16.56,0,0,1-1.86-2.54,17.93,17.93,0,0,1-1.44-2.83c-.2-.49-.32-1-.49-1.51A10.22,10.22,0,0,1,384,326a19.46,19.46,0,0,1-.24-6.32A18.6,18.6,0,0,1,385.54,313.69Z"/><path class="cls-8" d="M418.73,297.59a25.86,25.86,0,0,0,3.18-1,7.46,7.46,0,0,0,1.39-.75,12.09,12.09,0,0,0,1.31-1.07,3.2,3.2,0,0,1-.78,1.65,4.3,4.3,0,0,1-1.52,1.09,5.15,5.15,0,0,1-1.8.39A4.2,4.2,0,0,1,418.73,297.59Z"/><path class="cls-8" d="M417.4,293.09a4.27,4.27,0,0,1,1.18-1.39,4.82,4.82,0,0,1,1.66-.88,3.55,3.55,0,0,1,1.94,0,2.7,2.7,0,0,1,1.5,1.13,5.87,5.87,0,0,0-1.63-.36,5.28,5.28,0,0,0-1.53.21,11.08,11.08,0,0,0-1.53.58Z"/><path class="cls-8" d="M378.51,319.05a36.52,36.52,0,0,0-3.95-2.85,5.51,5.51,0,0,0-2.11-.78,4.15,4.15,0,0,0-2.26.43,3,3,0,0,1,2.29-1.21,4.72,4.72,0,0,1,2.57.69,8.88,8.88,0,0,1,2,1.62A8.42,8.42,0,0,1,378.51,319.05Z"/><path class="cls-8" d="M378.51,323.59a10.82,10.82,0,0,1-2.92.64,12.17,12.17,0,0,1-3-.09,6.58,6.58,0,0,1-2.87-1.16,3.36,3.36,0,0,1-1.4-2.67,4.17,4.17,0,0,0,1.83,2,7.89,7.89,0,0,0,2.61.82A48.39,48.39,0,0,0,378.51,323.59Z"/><path class="cls-8" d="M315.65,344a2.4,2.4,0,0,0-1.92-3.45,5.15,5.15,0,0,0-1.63-5.62,1.2,1.2,0,0,0-.71-.31,1.4,1.4,0,0,0-.76.33l-4.49,3.24a2.62,2.62,0,0,0-.9.88c-.92,1.78,2.4,4.06,1,5.53-.39.42-1,.51-1.51.82-1.07.66-1.2,2.13-1.7,3.29s-2.24,2.06-2.91,1c.5-1.11-1-2.07-2.2-2.21s-2.47-.21-3.13-1.34c-1.72,1.49-5.55-2.68-5.47-4.37a3.32,3.32,0,0,0-2.67,2.75,20.27,20.27,0,0,0-.15,4.2c0,2.72-.92,5.4-.87,8.12,0,2.13.86,4.48,2.8,5.34a7.26,7.26,0,0,0,3,.4l22.13-.14a3.3,3.3,0,0,0,1.56-.26c1-.52,1.21-1.83,1.3-2.95q.58-7.22,1.19-14.43Z"/><path class="cls-10" d="M315.65,344a2.4,2.4,0,0,0-1.92-3.45,5.15,5.15,0,0,0-1.63-5.62,1.2,1.2,0,0,0-.71-.31,1.4,1.4,0,0,0-.76.33l-4.49,3.24a2.62,2.62,0,0,0-.9.88c-.92,1.78,2.4,4.06,1,5.53-.39.42-1,.51-1.51.82-1.07.66-1.2,2.13-1.7,3.29s-2.24,2.06-2.91,1c.5-1.11-1-2.07-2.2-2.21s-2.47-.21-3.13-1.34c-1.72,1.49-5.55-2.68-5.47-4.37a3.32,3.32,0,0,0-2.67,2.75,20.27,20.27,0,0,0-.15,4.2c0,2.72-.92,5.4-.87,8.12,0,2.13.86,4.48,2.8,5.34a7.26,7.26,0,0,0,3,.4l22.13-.14a3.3,3.3,0,0,0,1.56-.26c1-.52,1.21-1.83,1.3-2.95q.58-7.22,1.19-14.43Z"/><path class="cls-8" d="M317,320.61H282.61l.28,3.47.21,2.47.52,6.45.3,3.7.39,4.93.17,2.12.06.62.2,2.49.28,3.4.17,2.12.17,2.14.2,2.49.16,1.88.17,2.11.07.92h31.51l.07-.92.17-2.1.16-1.9.2-2.49.17-2.13.17-2.12.28-3.41.2-2.48.05-.62.17-2.12.4-4.93.3-3.69.52-6.46.2-2.47.28-3.47Zm2.06,2.27h0l-.66-.66h.72Zm-.17,2.11-.06.84-3.08,3.07-3.52-3.52,3.15-3.16h.74ZM318,336l-2.25,2.25-3.52-3.53,3.52-3.52,2.44,2.44Zm-32.67-2.36h0l2.44-2.44,3.52,3.52-3.52,3.53L285.48,336ZM314.57,330,311,333.56,307.52,330l3.52-3.53ZM309,322.22h4l-2,2Zm.88,12.48-3.52,3.53-3.53-3.53,3.53-3.52Zm-11.71,4.66,3.53-3.51,3.51,3.51-3.51,3.53Zm2.38,4.67L297,347.55,293.53,344l3.52-3.53Zm5.81-3.52L309.9,344l-3.52,3.51L302.85,344Zm-4.66-6.95L298.19,330l3.53-3.53,3.51,3.53Zm-1.15,1.14-3.52,3.53-3.52-3.53,3.52-3.52Zm-8.19-1.14L288.86,330l3.52-3.53,3.53,3.53Zm0,2.29,3.53,3.51-3.53,3.53-3.52-3.53Zm3.53,12.85-3.53,3.52-3.52-3.52,3.52-3.53Zm1.13,1.14,3.53,3.52-3.52,3.53-3.52-3.53Zm1.15-1.14,3.53-3.53,3.51,3.53-3.51,3.52Zm8.19,1.14,3.52,3.52-3.52,3.53-3.53-3.53ZM311,354.5l3.53,3.52-2.29,2.29H309.8L307.52,358Zm-3.52-5.8,3.52-3.53,3.53,3.53L311,352.22Zm0-9.34,3.52-3.51,3.53,3.51L311,342.89Zm2.38-14-3.52,3.52-3.53-3.52,3.16-3.16h.74Zm-8.18-1.14-2-2h4Zm-1.15,1.14-3.52,3.52-3.52-3.52,3.15-3.16h.74Zm-6.17-3.16-2,2-2-2Zm-6.31,0,3.15,3.16-3.52,3.52-3.07-3.07-.06-.84,2.76-2.77Zm-3,0-.65.66h0l-.06-.66Zm-.22,6.09,1.73,1.73-1.47,1.47Zm1,11.82-.13-1.67h0l.9.9-.77.77Zm.17,2.12,1.74-1.74,3.52,3.53-3.52,3.51-1.42-1.42Zm.53,6.52v-.15l.08.08-.07.07Zm.61,7.51-.44-5.4,1-1,3.52,3.52-3.52,3.52-.6-.6Zm.32,4-.06-.81.34-.34,1.14,1.15Zm1.42-2.29,3.52-3.52,3.53,3.52-2.29,2.29h-2.48Zm7.05,2.29,1.14-1.15,1.15,1.15Zm4.56,0L298.19,358l3.53-3.52,3.51,3.52L303,360.31Zm4.76,0,1.15-1.15,1.14,1.15Zm10.75,0h-1.42l1.14-1.15.34.34Zm.33-4-.61.6-3.52-3.52,3.52-3.52,1,1Zm.62-7.67,0,.16-.07-.07.09-.09Zm.2-2.48-1.43,1.42L312.18,344l3.52-3.53,1.75,1.74Zm.49-6-.78-.78.91-.9Zm1-11.84-.26,3.22L316.84,330l1.74-1.74Z"/><g class="cls-12"><path class="cls-13" d="M317,320.61H282.61l.28,3.47.21,2.47.52,6.45.3,3.7.39,4.93.17,2.12.06.62.2,2.49.28,3.4.17,2.12.17,2.14.2,2.49.16,1.88.17,2.11.07.92h31.51l.07-.92.17-2.1.16-1.9.2-2.49.17-2.13.17-2.12.28-3.41.2-2.48.05-.62.17-2.12.4-4.93.3-3.69.52-6.46.2-2.47.28-3.47Zm2.06,2.27h0l-.66-.66h.72Zm-.17,2.11-.06.84-3.08,3.07-3.52-3.52,3.15-3.16h.74ZM318,336l-2.25,2.25-3.52-3.53,3.52-3.52,2.44,2.44Zm-32.67-2.36h0l2.44-2.44,3.52,3.52-3.52,3.53L285.48,336ZM314.57,330,311,333.56,307.52,330l3.52-3.53ZM309,322.22h4l-2,2Zm.88,12.48-3.52,3.53-3.53-3.53,3.53-3.52Zm-11.71,4.66,3.53-3.51,3.51,3.51-3.51,3.53Zm2.38,4.67L297,347.55,293.53,344l3.52-3.53Zm5.81-3.52L309.9,344l-3.52,3.51L302.85,344Zm-4.66-6.95L298.19,330l3.53-3.53,3.51,3.53Zm-1.15,1.14-3.52,3.53-3.52-3.53,3.52-3.52Zm-8.19-1.14L288.86,330l3.52-3.53,3.53,3.53Zm0,2.29,3.53,3.51-3.53,3.53-3.52-3.53Zm3.53,12.85-3.53,3.52-3.52-3.52,3.52-3.53Zm1.13,1.14,3.53,3.52-3.52,3.53-3.52-3.53Zm1.15-1.14,3.53-3.53,3.51,3.53-3.51,3.52Zm8.19,1.14,3.52,3.52-3.52,3.53-3.53-3.53ZM311,354.5l3.53,3.52-2.29,2.29H309.8L307.52,358Zm-3.52-5.8,3.52-3.53,3.53,3.53L311,352.22Zm0-9.34,3.52-3.51,3.53,3.51L311,342.89Zm2.38-14-3.52,3.52-3.53-3.52,3.16-3.16h.74Zm-8.18-1.14-2-2h4Zm-1.15,1.14-3.52,3.52-3.52-3.52,3.15-3.16h.74Zm-6.17-3.16-2,2-2-2Zm-6.31,0,3.15,3.16-3.52,3.52-3.07-3.07-.06-.84,2.76-2.77Zm-3,0-.65.66h0l-.06-.66Zm-.22,6.09,1.73,1.73-1.47,1.47Zm1,11.82-.13-1.67h0l.9.9-.77.77Zm.17,2.12,1.74-1.74,3.52,3.53-3.52,3.51-1.42-1.42Zm.53,6.52v-.15l.08.08-.07.07Zm.61,7.51-.44-5.4,1-1,3.52,3.52-3.52,3.52-.6-.6Zm.32,4-.06-.81.34-.34,1.14,1.15Zm1.42-2.29,3.52-3.52,3.53,3.52-2.29,2.29h-2.48Zm7.05,2.29,1.14-1.15,1.15,1.15Zm4.56,0L298.19,358l3.53-3.52,3.51,3.52L303,360.31Zm4.76,0,1.15-1.15,1.14,1.15Zm10.75,0h-1.42l1.14-1.15.34.34Zm.33-4-.61.6-3.52-3.52,3.52-3.52,1,1Zm.62-7.67,0,.16-.07-.07.09-.09Zm.2-2.48-1.43,1.42L312.18,344l3.52-3.53,1.75,1.74Zm.49-6-.78-.78.91-.9Zm1-11.84-.26,3.22L316.84,330l1.74-1.74Z"/></g><rect class="cls-8" x="280.41" y="319.17" width="42.6" height="4.49" rx="1.64" transform="translate(603.42 642.83) rotate(180)"/><rect class="cls-8" x="283.49" y="359.51" width="36.45" height="4.49" rx="1.64"/><rect class="cls-8" x="233.89" y="93.67" width="199.65" height="135.93"/><rect class="cls-14" x="233.89" y="93.67" width="199.65" height="135.93"/><path class="cls-15" d="M362.44,93.67S305,147.45,233.89,148.73V93.67Z"/><path class="cls-15" d="M433.53,164.63s-39.45-4.11-78.48,18.56-78,44-121.16,34v12.4H433.53Z"/><rect class="cls-13" x="285.97" y="124.4" width="95.47" height="16.35"/><rect class="cls-13" x="285.97" y="147.59" width="95.47" height="16.35"/><g class="cls-16"><path class="cls-11" d="M294.52,134.17v.42H291.2v-4.68h3.22v.42H291.7V132h2.42v.42H291.7v1.75Z"/><path class="cls-11" d="M295.18,132.57h1.76V133h-1.76Z"/><path class="cls-11" d="M303.81,132.55v2h-.47v-2c0-.74-.38-1.13-1-1.13a1.13,1.13,0,0,0-1.18,1.28v1.84h-.48v-2c0-.74-.37-1.13-1-1.13a1.14,1.14,0,0,0-1.17,1.28v1.84H298v-3.52h.46v.64a1.41,1.41,0,0,1,1.29-.67,1.26,1.26,0,0,1,1.25.75,1.53,1.53,0,0,1,1.39-.75A1.33,1.33,0,0,1,303.81,132.55Z"/><path class="cls-11" d="M307.76,132.41v2.18h-.46v-.54a1.32,1.32,0,0,1-1.21.58c-.8,0-1.28-.42-1.28-1s.34-1,1.35-1h1.12v-.22a.86.86,0,0,0-1-.93,1.79,1.79,0,0,0-1.18.42l-.21-.36a2.24,2.24,0,0,1,1.43-.48A1.26,1.26,0,0,1,307.76,132.41Zm-.48,1.13V133h-1.1c-.68,0-.91.27-.91.63s.33.66.89.66A1.12,1.12,0,0,0,307.28,133.54Z"/><path class="cls-11" d="M308.94,130a.35.35,0,0,1,.7,0,.35.35,0,0,1-.7,0Zm.11,1.11h.47v3.52h-.47Z"/><path class="cls-11" d="M310.85,129.62h.47v5h-.47Z"/></g><g class="cls-16"><path class="cls-11" d="M294.87,154.72c0,1-.72,1.6-1.91,1.6H291.7v1.48h-.5v-4.69H293C294.15,153.11,294.87,153.72,294.87,154.72Zm-.49,0c0-.75-.5-1.18-1.44-1.18H291.7v2.35h1.24C293.88,155.89,294.38,155.46,294.38,154.72Z"/><path class="cls-11" d="M298.46,155.62v2.18H298v-.55a1.32,1.32,0,0,1-1.21.59c-.8,0-1.29-.42-1.29-1s.35-1,1.36-1H298v-.21c0-.6-.34-.93-1-.93a1.8,1.8,0,0,0-1.17.41l-.22-.35a2.27,2.27,0,0,1,1.44-.48A1.25,1.25,0,0,1,298.46,155.62Zm-.47,1.12v-.57h-1.11c-.68,0-.9.27-.9.63s.33.66.89.66A1.12,1.12,0,0,0,298,156.74Z"/><path class="cls-11" d="M299.26,157.4l.22-.37a2.11,2.11,0,0,0,1.25.39c.67,0,.94-.23.94-.57,0-.92-2.28-.2-2.28-1.59,0-.58.5-1,1.39-1a2.39,2.39,0,0,1,1.25.33l-.21.38a1.83,1.83,0,0,0-1-.3c-.63,0-.91.25-.91.58,0,1,2.28.24,2.28,1.59,0,.61-.54,1-1.45,1A2.35,2.35,0,0,1,299.26,157.4Z"/><path class="cls-11" d="M302.54,157.4l.21-.37a2.14,2.14,0,0,0,1.25.39c.67,0,.95-.23.95-.57,0-.92-2.29-.2-2.29-1.59,0-.58.5-1,1.4-1a2.38,2.38,0,0,1,1.24.33l-.21.38a1.8,1.8,0,0,0-1-.3c-.64,0-.92.25-.92.58,0,1,2.28.24,2.28,1.59,0,.61-.53,1-1.45,1A2.32,2.32,0,0,1,302.54,157.4Z"/><path class="cls-11" d="M311.4,154.28l-1.33,3.52h-.45l-1.11-2.88-1.11,2.88H307l-1.33-3.52h.46l1.1,3,1.13-3h.41l1.13,3,1.12-3Z"/><path class="cls-11" d="M311.66,156a1.79,1.79,0,1,1,1.79,1.8A1.73,1.73,0,0,1,311.66,156Zm3.1,0a1.31,1.31,0,1,0-1.31,1.37A1.29,1.29,0,0,0,314.76,156Z"/><path class="cls-11" d="M318,154.25v.47h-.11a1.14,1.14,0,0,0-1.19,1.3v1.79h-.47v-3.52h.45V155A1.34,1.34,0,0,1,318,154.25Z"/><path class="cls-11" d="M322,152.83v5h-.46v-.69a1.52,1.52,0,0,1-1.35.73,1.8,1.8,0,0,1,0-3.59,1.51,1.51,0,0,1,1.33.7v-2.12Zm-.47,3.21a1.31,1.31,0,1,0-1.3,1.37A1.29,1.29,0,0,0,321.55,156Z"/></g><rect class="cls-17" x="286.97" y="180.61" width="95.47" height="16.35"/><g class="cls-18"><path d="M298.89,173.84l-.64-.9h-1v.89H297V171h1c.71,0,1.14.36,1.14,1a.86.86,0,0,1-.64.88l.68,1Zm0-1.84c0-.44-.3-.7-.86-.7h-.74v1.4H298C298.58,172.7,298.88,172.44,298.88,172Z"/><path d="M301.64,172.88h-1.76a.78.78,0,0,0,.83.73.82.82,0,0,0,.65-.28l.16.19a1.05,1.05,0,0,1-.82.34,1,1,0,0,1-1.1-1.07,1,1,0,0,1,1-1.07,1,1,0,0,1,1,1.07S301.64,172.85,301.64,172.88Zm-1.76-.21h1.5a.75.75,0,0,0-1.5,0Z"/><path d="M305.7,172.62v1.22h-.29v-1.19c0-.44-.22-.67-.6-.67a.67.67,0,0,0-.7.76v1.1h-.29v-1.19c0-.44-.22-.67-.6-.67a.68.68,0,0,0-.71.76v1.1h-.28v-2.1h.27v.38a.86.86,0,0,1,.77-.4.76.76,0,0,1,.75.45.92.92,0,0,1,.83-.45A.8.8,0,0,1,305.7,172.62Z"/><path d="M308.31,172.88h-1.76a.78.78,0,0,0,.83.73.8.8,0,0,0,.64-.28l.16.19a1.11,1.11,0,0,1-1.91-.73,1,1,0,1,1,2.05,0S308.31,172.85,308.31,172.88Zm-1.76-.21H308a.72.72,0,0,0-.74-.7A.73.73,0,0,0,306.55,172.67Z"/><path d="M312.37,172.62v1.22h-.29v-1.19c0-.44-.22-.67-.6-.67a.67.67,0,0,0-.7.76v1.1h-.29v-1.19c0-.44-.22-.67-.61-.67a.68.68,0,0,0-.7.76v1.1h-.28v-2.1h.27v.38a.86.86,0,0,1,.77-.4.76.76,0,0,1,.75.45.92.92,0,0,1,.83-.45A.8.8,0,0,1,312.37,172.62Z"/><path d="M315.27,172.79a1,1,0,0,1-1,1.07.92.92,0,0,1-.81-.43v.41h-.27v-3h.28v1.26a.94.94,0,0,1,.8-.42A1,1,0,0,1,315.27,172.79Zm-.28,0a.79.79,0,1,0-.79.82A.78.78,0,0,0,315,172.79Z"/><path d="M317.68,172.88h-1.76a.78.78,0,0,0,.83.73.83.83,0,0,0,.65-.28l.15.19a1,1,0,0,1-.81.34,1,1,0,0,1-1.1-1.07,1,1,0,0,1,1-1.07,1,1,0,0,1,1,1.07S317.68,172.85,317.68,172.88Zm-1.76-.21h1.49a.72.72,0,0,0-.74-.7A.73.73,0,0,0,315.92,172.67Z"/><path d="M319.33,171.72V172h-.07a.68.68,0,0,0-.71.78v1.07h-.28v-2.1h.27v.41A.79.79,0,0,1,319.33,171.72Z"/><path d="M324.39,172.62v1.22h-.28v-1.19c0-.44-.23-.67-.61-.67a.67.67,0,0,0-.7.76v1.1h-.29v-1.19c0-.44-.22-.67-.6-.67a.68.68,0,0,0-.71.76v1.1h-.28v-2.1h.27v.38a.86.86,0,0,1,.77-.4.76.76,0,0,1,.75.45.92.92,0,0,1,.83-.45A.8.8,0,0,1,324.39,172.62Z"/><path d="M327,172.88h-1.76a.78.78,0,0,0,.83.73.8.8,0,0,0,.64-.28l.16.19a1,1,0,0,1-.81.34,1,1,0,0,1-1.1-1.07,1,1,0,0,1,1-1.07,1,1,0,0,1,1,1.07S327,172.85,327,172.88Zm-1.76-.21h1.49a.72.72,0,0,0-.74-.7A.73.73,0,0,0,325.24,172.67Z"/></g><rect class="cls-8" x="285.97" y="179.61" width="95.47" height="16.35"/><g class="cls-18"><path d="M316.47,206.34v1.1h1.45v.26h-1.45v1.19h-.3v-2.8h1.92v.25Z"/><path d="M318.36,207.83a1.07,1.07,0,1,1,1.07,1.08A1,1,0,0,1,318.36,207.83Zm1.85,0a.78.78,0,1,0-.78.82A.77.77,0,0,0,320.21,207.83Z"/><path d="M322.14,206.77V207h-.07a.67.67,0,0,0-.7.77v1.08h-.29v-2.11h.27v.41A.8.8,0,0,1,322.14,206.77Z"/><path d="M324.58,206.78v1.85a.92.92,0,0,1-1.05,1.05,1.46,1.46,0,0,1-1-.32l.14-.22a1.27,1.27,0,0,0,.83.29c.53,0,.78-.24.78-.76v-.27a1,1,0,0,1-.82.41,1,1,0,0,1-1.06-1,1,1,0,0,1,1.06-1,.94.94,0,0,1,.83.42v-.41Zm-.27,1a.8.8,0,0,0-1.6,0,.8.8,0,0,0,1.6,0Z"/><path d="M325.17,207.83a1.07,1.07,0,0,1,2.14,0,1.07,1.07,0,1,1-2.14,0Zm1.85,0a.77.77,0,0,0-.78-.82.82.82,0,0,0,0,1.64A.76.76,0,0,0,327,207.83Z"/><path d="M329,208.76a.67.67,0,0,1-.44.15.56.56,0,0,1-.62-.62V207h-.37v-.24h.37v-.46h.29v.46h.64V207h-.64v1.26a.33.33,0,0,0,.36.38.42.42,0,0,0,.31-.11Z"/><path d="M332.81,207.05c0,.59-.43.95-1.15.95h-.75v.89h-.29v-2.8h1C332.38,206.09,332.81,206.45,332.81,207.05Zm-.3,0c0-.45-.29-.71-.85-.71h-.75v1.4h.75C332.22,207.74,332.51,207.49,332.51,207.05Z"/><path d="M335,207.58v1.31h-.27v-.33a.81.81,0,0,1-.73.35c-.47,0-.77-.25-.77-.62s.21-.59.82-.59h.66v-.13a.52.52,0,0,0-.59-.56,1.08,1.08,0,0,0-.7.25l-.13-.21a1.33,1.33,0,0,1,.86-.28A.75.75,0,0,1,335,207.58Zm-.29.67v-.34H334c-.4,0-.54.16-.54.38s.2.39.54.39A.66.66,0,0,0,334.67,208.25Z"/><path d="M335.44,208.65l.13-.23a1.25,1.25,0,0,0,.74.24c.4,0,.57-.14.57-.35,0-.54-1.37-.11-1.37-.94,0-.35.3-.6.84-.6a1.43,1.43,0,0,1,.74.19l-.13.23a1,1,0,0,0-.61-.18c-.38,0-.55.15-.55.35,0,.57,1.36.14,1.36.95,0,.36-.32.6-.87.6A1.45,1.45,0,0,1,335.44,208.65Z"/><path d="M337.39,208.65l.13-.23a1.29,1.29,0,0,0,.75.24c.4,0,.56-.14.56-.35,0-.54-1.36-.11-1.36-.94,0-.35.3-.6.83-.6a1.4,1.4,0,0,1,.74.19l-.12.23a1,1,0,0,0-.62-.18c-.38,0-.55.15-.55.35,0,.57,1.37.14,1.37.95,0,.36-.32.6-.87.6A1.49,1.49,0,0,1,337.39,208.65Z"/><path d="M342.69,206.78l-.8,2.11h-.27l-.66-1.73-.66,1.73H340l-.79-2.11h.27l.66,1.79.68-1.79h.24l.67,1.79.67-1.79Z"/><path d="M342.85,207.83a1.07,1.07,0,1,1,1.07,1.08A1,1,0,0,1,342.85,207.83Zm1.85,0a.77.77,0,0,0-.78-.82.82.82,0,0,0,0,1.64A.76.76,0,0,0,344.7,207.83Z"/><path d="M346.63,206.77V207h-.07a.68.68,0,0,0-.71.77v1.08h-.28v-2.11h.27v.41A.79.79,0,0,1,346.63,206.77Z"/><path d="M349,205.92v3h-.27v-.42a.94.94,0,0,1-.82.44,1,1,0,0,1-1-1.08,1,1,0,0,1,1-1.06.91.91,0,0,1,.8.41v-1.26Zm-.28,1.91a.79.79,0,1,0-.78.82A.77.77,0,0,0,348.76,207.83Z"/><path d="M351.1,206.8c0-.28-.23-.48-.64-.48a.92.92,0,0,0-.76.32l-.21-.16a1.21,1.21,0,0,1,1-.42c.56,0,.92.27.92.7,0,.68-.73.71-.73,1.29h-.3C350.37,207.39,351.1,207.33,351.1,206.8Zm-.79,1.9a.21.21,0,0,1,.21-.21.21.21,0,0,1,.21.21.21.21,0,0,1-.21.21A.22.22,0,0,1,350.31,208.7Z"/></g><rect class="cls-13" x="286.7" y="169.45" width="4.85" height="4.85"/><path class="cls-13" d="M323.17,184.72h.8v4.9h3v.7h-3.83Z"/><path class="cls-13" d="M327.36,188.2a2.21,2.21,0,1,1,2.21,2.17A2.11,2.11,0,0,1,327.36,188.2Zm3.63,0a1.43,1.43,0,1,0-1.42,1.5A1.4,1.4,0,0,0,331,188.2Z"/><path class="cls-13" d="M336.89,186.08v3.66a1.93,1.93,0,0,1-2.2,2.18,3.19,3.19,0,0,1-2-.63l.37-.59a2.62,2.62,0,0,0,1.63.55c1,0,1.46-.47,1.46-1.43v-.33a1.94,1.94,0,0,1-1.53.65,2.05,2.05,0,1,1,0-4.1,1.93,1.93,0,0,1,1.57.7v-.66Zm-.75,2a1.46,1.46,0,1,0-1.46,1.38A1.36,1.36,0,0,0,336.14,188.09Z"/><path class="cls-13" d="M338.22,184.77a.52.52,0,0,1,1,0,.51.51,0,0,1-.52.52A.5.5,0,0,1,338.22,184.77Zm.13,1.31h.77v4.24h-.77Z"/><path class="cls-13" d="M344.61,187.88v2.44h-.77V188c0-.83-.42-1.24-1.14-1.24a1.26,1.26,0,0,0-1.35,1.41v2.18h-.76v-4.24h.73v.64a1.83,1.83,0,0,1,1.53-.68A1.64,1.64,0,0,1,344.61,187.88Z"/><polygon class="cls-11" points="288.69 173.21 287.62 172.04 287.98 171.71 288.69 172.48 290.29 170.82 290.65 171.17 288.69 173.21"/><g class="cls-16"><path class="cls-11" d="M372.38,158.79h0a5.4,5.4,0,0,1-4.37-2.58l-.1-.14.1-.15a5,5,0,0,1,8.75,0l.1.15-.1.14A5.41,5.41,0,0,1,372.38,158.79Zm-3.86-2.72a4.47,4.47,0,0,0,7.73,0,4.46,4.46,0,0,0-7.73,0Z"/><path class="cls-11" d="M372.38,157.92a1.86,1.86,0,1,1,1.86-1.85A1.85,1.85,0,0,1,372.38,157.92Zm0-3.21a1.36,1.36,0,1,0,1.36,1.36A1.36,1.36,0,0,0,372.38,154.71Z"/><rect class="cls-11" x="368.21" y="155.82" width="8.34" height="0.5" transform="translate(-1.29 309.03) rotate(-45)"/></g><g class="cls-18"><path d="M322.05,117l.21-.4a2.42,2.42,0,0,0,1.62.6c.91,0,1.31-.39,1.31-.87,0-1.35-3-.52-3-2.33,0-.73.56-1.35,1.81-1.35a2.72,2.72,0,0,1,1.52.44l-.17.41a2.61,2.61,0,0,0-1.35-.41c-.9,0-1.3.4-1.3.89,0,1.35,3,.53,3,2.32,0,.72-.57,1.34-1.82,1.34A2.68,2.68,0,0,1,322.05,117Z"/><path d="M326.61,112.72a.36.36,0,0,1,.37-.35.35.35,0,0,1,.36.34.35.35,0,0,1-.36.37A.36.36,0,0,1,326.61,112.72Zm.11,1.16h.5v3.69h-.5Z"/><path d="M332,113.88v3.24a1.62,1.62,0,0,1-1.84,1.84,2.53,2.53,0,0,1-1.72-.57l.25-.38a2.17,2.17,0,0,0,1.45.51c.93,0,1.36-.43,1.36-1.34v-.47a1.66,1.66,0,0,1-1.44.72,1.79,1.79,0,1,1,0-3.58,1.68,1.68,0,0,1,1.46.74v-.71Zm-.49,1.75a1.4,1.4,0,1,0-1.4,1.35A1.31,1.31,0,0,0,331.53,115.63Z"/><path d="M336.8,115.43v2.14h-.5v-2.09a1,1,0,0,0-1.11-1.18,1.2,1.2,0,0,0-1.28,1.33v1.94h-.5v-3.69h.47v.68a1.56,1.56,0,0,1,1.41-.71A1.41,1.41,0,0,1,336.8,115.43Z"/><path d="M339.87,112.72a.36.36,0,0,1,.36-.35.35.35,0,0,1,.37.34.36.36,0,0,1-.37.37A.36.36,0,0,1,339.87,112.72Zm.11,1.16h.5v3.69H340Z"/><path d="M345.25,115.43v2.14h-.49v-2.09a1,1,0,0,0-1.11-1.18,1.21,1.21,0,0,0-1.29,1.33v1.94h-.5v-3.69h.48v.68a1.55,1.55,0,0,1,1.4-.71A1.41,1.41,0,0,1,345.25,115.43Z"/></g><path class="cls-8" d="M181.28,93.31H152.55a8.85,8.85,0,0,0-8.85,8.85v25a8.84,8.84,0,0,0,8.85,8.84h8.38l-7,13.9,13-13.9h14.39a8.84,8.84,0,0,0,8.84-8.84v-25A8.84,8.84,0,0,0,181.28,93.31Z"/><path class="cls-19" d="M181.28,93.31H152.55a8.85,8.85,0,0,0-8.85,8.85v25a8.84,8.84,0,0,0,8.85,8.84h8.38l-7,13.9,13-13.9h14.39a8.84,8.84,0,0,0,8.84-8.84v-25A8.84,8.84,0,0,0,181.28,93.31Z"/><g class="cls-20"><circle class="cls-8" cx="166.91" cy="114.55" r="14.26" transform="translate(-32.11 151.57) rotate(-45)"/></g><path class="cls-13" d="M165.42,120.92a1.31,1.31,0,0,1-1-.46l-5.6-6.6a1.31,1.31,0,0,1,2-1.69l4.6,5.41,7.58-8.94a1.31,1.31,0,0,1,2,1.7l-8.59,10.12A1.29,1.29,0,0,1,165.42,120.92Z"/><path class="cls-11" d="M205,362.17h58.2a1.16,1.16,0,0,0,1.15-1.15v-3.71a1.15,1.15,0,0,0-1.15-1.14H208V237.35h54.26a2.09,2.09,0,0,0,2.09-2.09v-3.91H205a3,3,0,0,0-3,3V359.17A3,3,0,0,0,205,362.17Z"/><g class="cls-21"><path class="cls-13" d="M202,234.35V359.16a3,3,0,0,0,3,3h58.2a1.14,1.14,0,0,0,1.14-1.14v-3.71a1.15,1.15,0,0,0-1.14-1.15H208V237.35h54.26a2.09,2.09,0,0,0,2.08-2.09v-3.91H205A3,3,0,0,0,202,234.35Z"/></g><path class="cls-17" d="M202,234.35v31.83q3,.76,6,1.47v-30.3h54.26a2.09,2.09,0,0,0,2.08-2.09v-3.91H205A3,3,0,0,0,202,234.35Z"/><path class="cls-11" d="M96.75,345.42l23.86-2.08V312H129v31.33L153,345.42a4.12,4.12,0,0,1,3.72,4.1v3.18H93v-3.18A4.12,4.12,0,0,1,96.75,345.42Z"/><path class="cls-15" d="M96.75,345.42l23.86-2.08V312H129v31.33L153,345.42a4.12,4.12,0,0,1,3.72,4.1v3.18H93v-3.18A4.12,4.12,0,0,1,96.75,345.42Z"/><path class="cls-11" d="M148.94,356.64a5.49,5.49,0,1,0,5.49-5.48A5.49,5.49,0,0,0,148.94,356.64Z"/><path class="cls-11" d="M100.75,356.64a5.49,5.49,0,1,1-5.48-5.48A5.48,5.48,0,0,1,100.75,356.64Z"/><path class="cls-11" d="M122.88,287.71h3.85a3.71,3.71,0,0,1,3.71,3.71v27a0,0,0,0,1,0,0H119.17a0,0,0,0,1,0,0v-27A3.71,3.71,0,0,1,122.88,287.71Z" transform="translate(249.61 606.1) rotate(180)"/><path class="cls-9" d="M122.88,287.71h3.85a3.71,3.71,0,0,1,3.71,3.71v27a0,0,0,0,1,0,0H119.17a0,0,0,0,1,0,0v-27A3.71,3.71,0,0,1,122.88,287.71Z" transform="translate(249.61 606.1) rotate(180)"/><path class="cls-11" d="M100.06,225.71s2.58,51.82,13.74,60.75H101.86S91.22,268.8,90.43,225.71Z"/><path class="cls-15" d="M100.06,225.71s2.58,51.82,13.74,60.75H101.86S91.22,268.8,90.43,225.71Z"/><path class="cls-8" d="M99.09,282.16H152a4.49,4.49,0,0,1,4.49,4.49v4.1a0,0,0,0,1,0,0H94.59a0,0,0,0,1,0,0v-4.1A4.49,4.49,0,0,1,99.09,282.16Z"/><rect class="cls-11" x="92.24" y="286.46" width="66.62" height="4.29" rx="1.81"/><rect class="cls-14" x="92.24" y="286.46" width="66.62" height="4.29" rx="1.81"/><path class="cls-8" d="M88.33,237.05h19.13c5.6,0,9.64-5,9-11.24l-.81-8.29c-.62-6.21-5.65-11.24-11.25-11.24H85.3c-5.6,0-9.64,5-9,11.24l.81,8.29C77.69,232,82.73,237.05,88.33,237.05Z"/><g id="_Group_" data-name="&lt;Group&gt;"><path class="cls-22" d="M151.46,192.34l.92,2.82c.32,1,.66,1.92,1,2.87.69,1.91,1.42,3.79,2.2,5.61a51,51,0,0,0,2.53,5.13,16.78,16.78,0,0,0,2.73,3.7,9.23,9.23,0,0,0,3.76,1.71,44.2,44.2,0,0,0,5.7,1c4,.5,8.26.7,12.41.87l.74,5.6A64.85,64.85,0,0,1,170,223.82a41.64,41.64,0,0,1-7.18-.23,25.43,25.43,0,0,1-3.92-.82,14,14,0,0,1-2.12-.8,13.61,13.61,0,0,1-2.18-1.27,23.28,23.28,0,0,1-5.68-6.06,47.65,47.65,0,0,1-3.61-6.27,66.67,66.67,0,0,1-2.73-6.37c-.39-1.07-.77-2.15-1.13-3.23s-.67-2.14-1-3.37Z"/><path class="cls-11" d="M146.55,187.07c3.15,1.08,6,5.61,13.93,23.77,0,0,1.29,2.23,7.72,3.61l-.59,10.21s-9.18-.4-11.31-1.88-14.9-22.47-14.9-22.47Z"/><path class="cls-9" d="M168.2,214.46l-.59,10.2s-7.36-.32-10.43-1.45a4,4,0,0,1-.88-.42c-1.23-.86-6-8.25-9.85-14.33-2.79-4.42-5-8.15-5-8.15l5.15-13.24c3.15,1.08,6,5.61,13.94,23.77C160.49,210.84,161.77,213.07,168.2,214.46Z"/><path class="cls-23" d="M157.18,223.21a4,4,0,0,1-.88-.42c-1.23-.86-6-8.25-9.85-14.33A101.11,101.11,0,0,1,150,198.3S157.32,213,157.18,223.21Z"/><path class="cls-24" d="M180.54,216.6l7.17-2.59-.88,9.61s-6.58.84-7.39-2.62Z"/><polygon class="cls-24" points="193.65 215.96 192.55 223.86 186.83 223.62 187.71 214.01 193.65 215.96"/><polygon class="cls-11" points="168.25 214.01 171.91 215.11 170.57 225.04 166.91 225.67 168.25 214.01"/><path class="cls-8" d="M151.74,250.14s48.39,19.09,59.64,27.07S251,339,251,339l-11.73,9s-33.84-49.13-38-52.47-58-19.86-58-19.86Z"/><path class="cls-25" d="M251,339l-11.73,9s-7.9-11.47-16.53-23.7c-9.23-13.09-19.3-27.05-21.44-28.77-3-2.44-32.65-11.94-48.36-16.86-5.78-1.82-9.67-3-9.67-3l8.46-25.55s48.38,19.09,59.64,27.07S251,339,251,339Z"/><polygon class="cls-24" points="253.15 358.24 258.8 352.56 249.56 338.27 243.92 343.95 253.15 358.24"/><polygon class="cls-23" points="243.92 343.95 249.56 338.28 254.84 346.44 249 351.83 243.92 343.95"/><path class="cls-8" d="M259.78,351.94l.07,0,0,0a10.49,10.49,0,0,0,1.9-.94,2.11,2.11,0,0,0,1-1.17,1,1,0,0,0-.39-1,.7.7,0,0,0-.65-.2c-.55.12-1.09.91-1.5,1.66a2.94,2.94,0,0,0-.46-1.95.7.7,0,0,0-.87-.1.88.88,0,0,0-.49.63c-.23,1.08,1.22,2.82,1.29,2.92l.1-.11h0l-.09.11s-.07.11-.07.12S259.75,351.94,259.78,351.94Zm.05-.74c0,.06-.05.12-.07.17a4,4,0,0,1-.95-2.36.52.52,0,0,1,.24-.36l.07,0c.24-.13.37-.06.45,0A3.76,3.76,0,0,1,259.83,351.2Zm.34.24c.44-1,1.17-2.3,1.72-2.43a.37.37,0,0,1,.32.1.7.7,0,0,1,.26.63C262.36,350.26,261.51,350.88,260.17,351.44Z"/><path class="cls-11" d="M258.69,351.43l-7.46,5a.56.56,0,0,0-.19.78h0l3.6,6.15a1.42,1.42,0,0,0,1.95.4c2.57-1.79,3.71-2.77,7-5,2-1.36,6.11-3.85,8.57-6.14s.13-4.65-1.11-3.9c-3,1.77-8.08,2.53-10.94,2.31A2.24,2.24,0,0,0,258.69,351.43Z"/><polygon class="cls-8" points="239.82 351.96 254.47 342.2 251.09 335.32 235.22 346.33 239.82 351.96"/><polygon class="cls-26" points="239.82 351.96 254.47 342.2 251.09 335.32 235.22 346.33 239.82 351.96"/><path class="cls-23" d="M222.76,324.33c-9.23-13.09-19.3-27.05-21.44-28.77-3-2.44-32.65-11.94-48.36-16.86l-1.83-19.05,5.74-1,.65,1.46s35.86,8.13,46,13.21C210.05,276.58,218.82,308.66,222.76,324.33Z"/><path class="cls-8" d="M220.61,353.83s0,0,0,.05a.15.15,0,0,0,.07,0,10,10,0,0,0,2.11-.25,2.17,2.17,0,0,0,1.35-.76,1,1,0,0,0,0-1.07.7.7,0,0,0-.55-.4c-.56-.07-1.33.49-2,1.07a2.93,2.93,0,0,0,.21-2,.7.7,0,0,0-.78-.38.92.92,0,0,0-.68.43c-.57.95.22,3.07.26,3.19l.12-.07h0l-.12.08s-.11.08-.1.09A.15.15,0,0,0,220.61,353.83Zm.3-.68-.13.14a4.07,4.07,0,0,1-.12-2.54.52.52,0,0,1,.35-.26l.09,0c.26,0,.36.07.4.18A3.73,3.73,0,0,1,220.91,353.15Zm.23.34c.75-.8,1.87-1.78,2.43-1.72a.35.35,0,0,1,.27.2.72.72,0,0,1,0,.68C223.6,353.1,222.6,353.41,221.14,353.49Z"/><polygon class="cls-24" points="212.27 357.58 219.48 354.09 215.19 336.9 207.99 340.4 212.27 357.58"/><polygon class="cls-23" points="207.99 340.4 215.19 336.91 217.64 346.74 210.34 349.87 207.99 340.4"/><path class="cls-11" d="M219.75,353l-8.7,2.25a.56.56,0,0,0-.44.67h0l1.36,7a1.41,1.41,0,0,0,1.71,1c3-.83,4.42-1.38,8.24-2.4A74.22,74.22,0,0,0,232,358.59c3.08-1.35,1.67-4.35.25-4-3.38.69-8.47-.3-11.09-1.45A2.26,2.26,0,0,0,219.75,353Z"/><path class="cls-8" d="M218.7,340.17S206.5,279,204,275.31c-4.06-5.95-52.88-15.66-52.88-15.66l5.73-1-6.63-17.56-43.47,1.71s.91,28.72,5.33,36.42,69.81,11.23,74.06,13,17.22,49.77,17.22,49.77Z"/><path class="cls-25" d="M218.7,340.17S206.5,279,204,275.31c-4.06-5.95-52.88-15.66-52.88-15.66l5.73-1-6.63-17.56-43.47,1.71s.91,28.72,5.33,36.42,69.81,11.23,74.06,13,17.22,49.77,17.22,49.77Z"/><polygon class="cls-8" points="203.63 347.37 220.69 343.02 219.78 335.41 201.16 340.54 203.63 347.37"/><polygon class="cls-26" points="203.63 347.37 220.69 343.02 219.78 335.41 201.16 340.54 203.63 347.37"/><polygon class="cls-11" points="120.52 243.43 107.92 243.21 107.65 247.03 121.06 247.35 120.52 243.43"/><polygon class="cls-11" points="122.46 243.36 123.01 247.32 151.13 246.92 150.22 243.31 122.46 243.36"/><path class="cls-13" d="M136,244.08l.36,2.61a1.34,1.34,0,0,0,1.35,1.12l4.5-.13a1,1,0,0,0,1-1.19l-.37-2.62a1.34,1.34,0,0,0-1.35-1.12l-4.49.13A1,1,0,0,0,136,244.08Z"/><path class="cls-11" d="M107.86,242.66h41.3a2,2,0,0,0,2-1.78c5.1-40-4.64-53.81-4.64-53.81a72.83,72.83,0,0,0-11.32-2.31,147.3,147.3,0,0,0-16.81-.36A78.19,78.19,0,0,0,107,185.53c-2,.86-4.07,9.78-2,37.54.54,7.27.62,13.55.57,17.23A2.33,2.33,0,0,0,107.86,242.66Z"/><polygon class="cls-11" points="140.76 201.22 148.72 201.22 149.32 210.72 145.05 213.48 140.76 211.36 140.76 201.22"/><path class="cls-9" d="M151.19,240.88a2,2,0,0,1-2,1.78h-41.3a2.33,2.33,0,0,1-2.34-2.36c0-3.68,0-10-.56-17.23q-.43-6-.63-10.84a145.73,145.73,0,0,1,.1-17.72c.5-6,1.53-8.53,2.57-9a79.73,79.73,0,0,1,11.43-1.13,147.17,147.17,0,0,1,16.8.36,75.23,75.23,0,0,1,11.32,2.31S156.29,200.92,151.19,240.88Z"/><path class="cls-24" d="M118.8,184l13.34,4.55.54-3.82c-1.3-2.28-1.63-3.72-.53-6.37l-8.9-10.24C123.48,173.36,122.53,180.52,118.8,184Z"/><path class="cls-13" d="M127.24,190.52l2.62,1.08,2.28,1.44s3.05,17.46,2.2,32.19l2.56,2.11,2.7-2.18s-3.36-27.06-4.57-32.33l.53-1.27,1.23-2.62-2.27-1.19-3.61.79h-2.52Z"/><path class="cls-23" d="M126.87,172.29l5.27,6.06a18.21,18.21,0,0,0-.95,2.87c-2.23-.67-5-3.64-4.87-6.06A8,8,0,0,1,126.87,172.29Z"/><path class="cls-11" d="M119.63,181.57a62.85,62.85,0,0,0,12,6.24,11.81,11.81,0,0,0,0-5.67l5.89,3s.49,4.57-.86,6.94l-4.33-3.16-4.86,4s-9.2-3.56-10.64-8.37Z"/><path class="cls-23" d="M149.64,217.09l-13.66,11c-19.58,4.36-28.19-7.85-31.65-15.85a145.73,145.73,0,0,1,.1-17.72c4.7-.22,10.55-.22,12.13,1,2.75,2.11,12.33,16.9,13.76,18S149.64,217.09,149.64,217.09Z"/><path class="cls-24" d="M157.4,216.52l7.17-2.58-.88,9.6s-6.58.84-7.39-2.62Z"/><polygon class="cls-24" points="170.5 215.88 169.41 223.79 163.69 223.54 164.57 213.94 170.5 215.88"/><path class="cls-22" d="M115.69,197.15l1.62,3.09c.56,1,1.14,2.08,1.73,3.11,1.17,2.06,2.39,4.07,3.65,6a39.72,39.72,0,0,0,4,5.13,12.94,12.94,0,0,0,1.87,1.7c.17.13.2.13.25.18s.23.09.34.16.35.1.52.17l.64.15a34.73,34.73,0,0,0,6.52.58c2.35,0,4.76,0,7.2-.15,4.86-.25,9.85-.63,14.74-1.07l1.19,5.52A119.38,119.38,0,0,1,145,225.52c-2.54.5-5.13.87-7.78,1.15a42.12,42.12,0,0,1-8.5.05c-.41-.06-.8-.11-1.21-.19s-.85-.17-1.3-.29-.9-.26-1.43-.48a12.93,12.93,0,0,1-1.43-.68,21.81,21.81,0,0,1-4-2.89,43.49,43.49,0,0,1-5.71-6.38,72.68,72.68,0,0,1-4.45-6.7c-.66-1.15-1.3-2.3-1.92-3.46s-1.21-2.31-1.8-3.62Z"/><path class="cls-11" d="M107,185.53c-12.9,4.65,3.83,36.79,10.87,40.39S136.79,228,136.79,228l.84-11.16s-6.16-.75-8-1.19c-2.93-.7-8.85-13.64-12.84-20.68A22.49,22.49,0,0,0,107,185.53Z"/><path class="cls-9" d="M107,185.53c-12.9,4.65,3.83,36.79,10.87,40.39S136.79,228,136.79,228l.84-11.16s-6.16-.75-8-1.19c-2.93-.7-8.85-13.64-12.84-20.68A22.49,22.49,0,0,0,107,185.53Z"/><polygon class="cls-11" points="135.97 216.04 134.93 229 138.63 228.31 139.6 216.73 135.97 216.04"/><path class="cls-11" d="M146.18,157.58c.51,3-.78,8.82-4.53,6.36S145.29,152.44,146.18,157.58Z"/><path class="cls-24" d="M125,158.65c-1.44,7.32-2.66,11.53,0,16.14,4,7,13.83,5.89,17.44-.87,3.25-6.08,5.06-17-1.27-21.67A10.3,10.3,0,0,0,125,158.65Z"/><path class="cls-11" d="M121.48,150.58l8.29-.38L130,155c-.16-.09-.34-.17-.49-.26,0,0-.52,6.95-4.49,9.32C119.64,159.91,118.06,153.21,121.48,150.58Z"/><path class="cls-24" d="M120.62,163.93a7,7,0,0,0,2.35,4.85c1.87,1.63,3.89.21,4.28-2.11.35-2.09-.2-5.45-2.51-6.19A3.22,3.22,0,0,0,120.62,163.93Z"/><path class="cls-11" d="M135.42,163.42c-.16.59,0,1.14.42,1.24s.82-.3,1-.89,0-1.14-.42-1.24S135.57,162.83,135.42,163.42Z"/><path class="cls-11" d="M142.07,165.09c-.15.59,0,1.14.42,1.24s.83-.3,1-.89,0-1.14-.42-1.23S142.23,164.51,142.07,165.09Z"/><path class="cls-27" d="M139.88,164.85a20.71,20.71,0,0,0,1.6,5.56,3.61,3.61,0,0,1-2.93-.23Z"/><path class="cls-11" d="M134.81,171.63a5.07,5.07,0,0,0,.75.24.18.18,0,1,0,.09-.34,4.72,4.72,0,0,1-3.32-2.77.18.18,0,0,0-.23-.11.17.17,0,0,0-.11.22A4.88,4.88,0,0,0,134.81,171.63Z"/><path class="cls-11" d="M133.93,160.76a.32.32,0,0,0,.35,0,2.85,2.85,0,0,1,2.52-.59.36.36,0,0,0,.23-.68,3.6,3.6,0,0,0-3.19.72.35.35,0,0,0-.06.5A.31.31,0,0,0,133.93,160.76Z"/><path class="cls-11" d="M145.54,163.53a.3.3,0,0,0,.21,0,.37.37,0,0,0,.28-.42,3.5,3.5,0,0,0-2-2.56.37.37,0,0,0-.47.2.36.36,0,0,0,.2.46,2.74,2.74,0,0,1,1.54,2.05A.35.35,0,0,0,145.54,163.53Z"/><path class="cls-11" d="M126.94,156.47a3.15,3.15,0,0,0,.51.35,3.3,3.3,0,0,0,3.2.13c2.06-1,2.71-6.87,8.57-3.89a3.44,3.44,0,0,1,3.52,1.25c1.51,1.85.47,8.6,3.69,7.67s2.66-1.93,2.66-1.93-.9.57-1.43.12a3,3,0,0,0,.87-3.37s-.78.93-1.3.74a13.62,13.62,0,0,0-.89-8.1c-1.87-4.66-13.31-3.62-13.31-3.62s-1.44-2.41-6.61-.73-7.53,7.91-6.71,10.62"/></g><polygon class="cls-11" points="195.2 222.78 194.46 220 164.13 220 150.17 221.39 149.64 222.78 195.2 222.78"/><polygon class="cls-28" points="195.2 222.78 194.46 220 164.13 220 150.17 221.39 149.64 222.78 195.2 222.78"/><polygon class="cls-23" points="164.13 220 164.13 222.78 195.2 222.78 194.46 220 164.13 220"/><path class="cls-11" d="M174.39,206.64a2.39,2.39,0,0,0,2.41,2.67h46.46a3,3,0,0,0,2.91-2.67l2.76-29.74a2.75,2.75,0,0,0-.06-.87,2.38,2.38,0,0,0-2.35-1.8H180.06a3,3,0,0,0-2.91,2.67Z"/><path class="cls-28" d="M174.39,206.64a2.39,2.39,0,0,0,2.41,2.67h46.46a3,3,0,0,0,2.91-2.67l2.76-29.74a2.75,2.75,0,0,0-.06-.87,2.38,2.38,0,0,0-2.35-1.8H180.06a3,3,0,0,0-2.91,2.67Z"/><path class="cls-29" d="M177,209.31h46.29a3,3,0,0,0,2.91-2.67l2.76-29.74a2.75,2.75,0,0,0-.06-.87h-46.3a3,3,0,0,0-2.9,2.67l-2.76,29.74A2.49,2.49,0,0,0,177,209.31Z"/><polygon class="cls-11" points="208.88 191.07 199.27 191.07 201.83 218.59 186.64 220.87 186.64 222.78 218.65 222.78 218.65 220.87 212.09 218.59 208.88 191.07"/><polygon class="cls-28" points="208.88 191.07 199.27 191.07 201.83 218.59 186.64 220.87 186.64 222.78 218.65 222.78 218.65 220.87 212.09 218.59 208.88 191.07"/><polygon class="cls-9" points="199.27 191.07 206.39 222.35 212.09 222.18 208.88 191.07 199.27 191.07"/><path class="cls-11" d="M119.94,362.17h58.2a1.15,1.15,0,0,0,1.14-1.15v-3.71a1.14,1.14,0,0,0-1.14-1.14h-55.2V237.35H177.2a2.08,2.08,0,0,0,2.08-2.09v-3.91H119.94a3,3,0,0,0-3,3V359.17A3,3,0,0,0,119.94,362.17Z"/><g class="cls-30"><path class="cls-13" d="M119.94,362.17h58.2a1.15,1.15,0,0,0,1.14-1.15v-3.71a1.14,1.14,0,0,0-1.14-1.14h-55.2V237.35H177.2a2.08,2.08,0,0,0,2.08-2.09v-3.91H119.94a3,3,0,0,0-3,3V359.17A3,3,0,0,0,119.94,362.17Z"/></g><path class="cls-8" d="M112.49,225.67H265.91a1.94,1.94,0,0,1,1.94,1.94v4.72a0,0,0,0,1,0,0H110.55a0,0,0,0,1,0,0v-4.73a1.94,1.94,0,0,1,1.94-1.94Z" transform="translate(378.39 458.01) rotate(180)"/><rect class="cls-23" x="110.55" y="225.67" width="157.3" height="3.33" transform="translate(378.39 454.68) rotate(180)"/><path class="cls-8" d="M107.25,226.54h163.9a1.88,1.88,0,0,0,1.88-1.88h0a1.89,1.89,0,0,0-1.88-1.88H107.25a1.88,1.88,0,0,0-1.88,1.88h0A1.88,1.88,0,0,0,107.25,226.54Z"/></g></g></svg>