<svg xmlns="http://www.w3.org/2000/svg" xmlns:xlink="http://www.w3.org/1999/xlink" viewBox="0 0 437.34 524.69"><defs><style>.cls-1{fill:url(#Degradado_sin_nombre_23);}.cls-2{isolation:isolate;}.cls-3{clip-path:url(#clip-path);}.cls-13,.cls-15,.cls-4{fill:none;}.cls-5{opacity:0.3;fill:url(#Degradado_sin_nombre_25);}.cls-5,.cls-6{mix-blend-mode:color-burn;}.cls-6{opacity:0.45;fill:url(#Degradado_sin_nombre_24);}.cls-12,.cls-14,.cls-15,.cls-7,.cls-8{opacity:0.6;}.cls-11,.cls-12,.cls-14,.cls-15,.cls-7,.cls-8,.cls-9{mix-blend-mode:overlay;}.cls-7{fill:url(#Degradado_sin_nombre_1532);}.cls-8{fill:url(#Degradado_sin_nombre_1533);}.cls-9{opacity:0.4;}.cls-10,.cls-11,.cls-14,.cls-16,.cls-17,.cls-22,.cls-32{fill:#fff;}.cls-11{opacity:0.15;}.cls-13,.cls-15,.cls-16{stroke:#fff;stroke-miterlimit:10;stroke-width:0.49px;}.cls-17{font-size:8.31px;letter-spacing:0.03em;}.cls-17,.cls-22{font-family:Rubik-Regular, Rubik Regular;}.cls-18{letter-spacing:0.05em;}.cls-19{letter-spacing:-0.03em;}.cls-20{letter-spacing:0.04em;}.cls-21{letter-spacing:0.05em;}.cls-22{font-size:10.78px;letter-spacing:0.06em;}.cls-23{letter-spacing:0.05em;}.cls-24{letter-spacing:0.04em;}.cls-25{letter-spacing:0.04em;}.cls-26{letter-spacing:0.04em;}.cls-27{font-size:29.4px;letter-spacing:0.05em;}.cls-28{letter-spacing:0.01em;}.cls-29{letter-spacing:0.03em;}.cls-30{letter-spacing:0.05em;}.cls-31{letter-spacing:0.04em;}.cls-32{font-size:4.9px;font-family:Rubik-Medium, Rubik Medium;font-weight:500;letter-spacing:0.02em;}.cls-33{letter-spacing:0.03em;}.cls-34{letter-spacing:0.02em;}.cls-35{letter-spacing:0.03em;}.cls-36{letter-spacing:0.03em;}.cls-37{letter-spacing:0.02em;}.cls-38{letter-spacing:0.04em;}.cls-39{letter-spacing:0.02em;}.cls-40{letter-spacing:0.03em;}.cls-41{letter-spacing:0.02em;}.cls-42{letter-spacing:0.03em;}.cls-43{letter-spacing:0.03em;}</style><linearGradient id="Degradado_sin_nombre_23" x1="207.32" y1="470.47" x2="207.32" y2="94.8" gradientUnits="userSpaceOnUse"><stop offset="0" stop-color="#097ff5"/><stop offset="0.28" stop-color="#1687f7"/><stop offset="0.8" stop-color="#399afd"/><stop offset="1" stop-color="#48a3ff"/></linearGradient><clipPath id="clip-path"><rect class="cls-1" x="53.85" y="94.8" width="306.95" height="375.67"/></clipPath><linearGradient id="Degradado_sin_nombre_25" x1="194.59" y1="385.66" x2="206.29" y2="519.32" gradientUnits="userSpaceOnUse"><stop offset="0" stop-color="#2390ff"/><stop offset="0.05" stop-color="#2390ff" stop-opacity="0.93"/><stop offset="0.3" stop-color="#2390ff" stop-opacity="0.6"/><stop offset="0.52" stop-color="#2390ff" stop-opacity="0.35"/><stop offset="0.7" stop-color="#2390ff" stop-opacity="0.16"/><stop offset="0.84" stop-color="#2390ff" stop-opacity="0.04"/><stop offset="0.91" stop-color="#2390ff" stop-opacity="0"/></linearGradient><linearGradient id="Degradado_sin_nombre_24" x1="201.56" y1="524.69" x2="201.56" y2="411.64" gradientUnits="userSpaceOnUse"><stop offset="0.09" stop-color="#2390ff" stop-opacity="0"/><stop offset="0.16" stop-color="#2390ff" stop-opacity="0.04"/><stop offset="0.3" stop-color="#2390ff" stop-opacity="0.16"/><stop offset="0.48" stop-color="#2390ff" stop-opacity="0.35"/><stop offset="0.7" stop-color="#2390ff" stop-opacity="0.6"/><stop offset="0.95" stop-color="#2390ff" stop-opacity="0.93"/><stop offset="1" stop-color="#2390ff"/></linearGradient><linearGradient id="Degradado_sin_nombre_1532" x1="9969.62" y1="-5006.6" x2="9969.62" y2="-5151.9" gradientTransform="translate(10171.18 -4954.02) rotate(180)" gradientUnits="userSpaceOnUse"><stop offset="0.04" stop-color="#fff" stop-opacity="0"/><stop offset="0.16" stop-color="#fff" stop-opacity="0.02"/><stop offset="0.28" stop-color="#fff" stop-opacity="0.06"/><stop offset="0.4" stop-color="#fff" stop-opacity="0.14"/><stop offset="0.52" stop-color="#fff" stop-opacity="0.24"/><stop offset="0.63" stop-color="#fff" stop-opacity="0.38"/><stop offset="0.75" stop-color="#fff" stop-opacity="0.55"/><stop offset="0.86" stop-color="#fff" stop-opacity="0.75"/><stop offset="0.98" stop-color="#fff" stop-opacity="0.98"/><stop offset="0.99" stop-color="#fff"/></linearGradient><linearGradient id="Degradado_sin_nombre_1533" x1="243.97" y1="-5039.89" x2="243.97" y2="-5125.6" gradientTransform="matrix(1, 0, 0, -1, 0, -4954.02)" gradientUnits="userSpaceOnUse"><stop offset="0" stop-color="#fff" stop-opacity="0"/><stop offset="0.13" stop-color="#fff" stop-opacity="0.02"/><stop offset="0.25" stop-color="#fff" stop-opacity="0.06"/><stop offset="0.38" stop-color="#fff" stop-opacity="0.14"/><stop offset="0.5" stop-color="#fff" stop-opacity="0.24"/><stop offset="0.62" stop-color="#fff" stop-opacity="0.38"/><stop offset="0.74" stop-color="#fff" stop-opacity="0.55"/><stop offset="0.86" stop-color="#fff" stop-opacity="0.75"/><stop offset="0.98" stop-color="#fff" stop-opacity="0.98"/><stop offset="0.99" stop-color="#fff"/></linearGradient></defs><title>Asset 1</title><g class="cls-2"><g id="Layer_2" data-name="Layer 2"><g id="OBJECTS"><rect class="cls-1" x="53.85" y="94.8" width="306.95" height="375.67"/><g class="cls-3"><rect class="cls-4" x="53.85" y="94.8" width="306.95" height="375.67"/><path class="cls-5" d="M0,429.08c14.15-13.75,37.4-22.49,59.11-18.33,14.94,2.87,28.25,9.67,41.91,15.45s28.7,10.69,43.94,9.29c33.37-3.07,54.39-34.35,87.44-39.24,35.16-5.21,71.78,21.3,104.58,9.6,23.69-8.46,35.44-34.41,60.88-38V502.56H0Z"/><path class="cls-6" d="M31,439.13c18.33,3,28.49-.08,43.71-8.31,10.23-5.52,18.86-13.39,31.05-15.78,14.88-2.91,30.26,3.37,41.74,11.06s21.21,17.12,34.69,22.68c28,11.55,63.83,2.89,89.06-11.82,10.91-6.36,20.77-13.81,32.66-19.11s26.66-8.23,39.6-4.59c10.65,3,18.47,9.92,28.62,13.77v97.66H31Z"/><path class="cls-7" d="M372.13,143.32c-18.33-6-28.49.18-43.72,16.5-10.22,11-18.85,26.58-31,31.32-14.89,5.78-30.27-6.7-41.74-22s-21.21-34-34.69-45c-28-22.91-63.84-5.73-89.06,23.46C121,160.26,111.1,175.05,99.22,185.56s-26.67,16.35-39.61,9.12C49,188.74,41.14,175,31,167.34V52.58H372.13Z"/><path class="cls-8" d="M50.6,129.29c20.78-4.64,32.3.13,49.56,12.78,11.59,8.5,21.37,20.61,35.19,24.28,16.88,4.48,34.32-5.19,47.33-17s24-26.33,39.32-34.89c31.74-17.76,72.37-4.44,101,18.18,12.37,9.79,23.56,21.26,37,29.4s30.23,12.67,44.9,7.07c12.07-4.6,20.94-15.27,32.44-21.19v-62H50.6Z"/><g class="cls-9"><path class="cls-10" d="M103.52,168.06a2.26,2.26,0,1,1-2.26-2.26A2.26,2.26,0,0,1,103.52,168.06Z"/><path class="cls-10" d="M269.55,386.47a2.26,2.26,0,1,1-2.26-2.26A2.26,2.26,0,0,1,269.55,386.47Z"/><path class="cls-10" d="M117.79,447a1.16,1.16,0,1,1-1.16-1.16A1.15,1.15,0,0,1,117.79,447Z"/><circle class="cls-10" cx="310.25" cy="383.69" r="2.47"/><path class="cls-10" d="M130.63,428.6a2.84,2.84,0,1,1-2.84-2.84A2.84,2.84,0,0,1,130.63,428.6Z"/><path class="cls-10" d="M106.32,152.63a1.36,1.36,0,1,1-1.35-1.36A1.35,1.35,0,0,1,106.32,152.63Z"/><path class="cls-10" d="M304.78,404a1.36,1.36,0,1,1-1.35-1.36A1.36,1.36,0,0,1,304.78,404Z"/><circle class="cls-10" cx="74.79" cy="160.98" r="0.81"/><path class="cls-10" d="M333.68,311.14a.81.81,0,0,1-.81.81.81.81,0,1,1,0-1.62A.81.81,0,0,1,333.68,311.14Z"/><path class="cls-10" d="M156.19,406a.79.79,0,0,1-.79.8.8.8,0,1,1,0-1.59A.79.79,0,0,1,156.19,406Z"/><path class="cls-10" d="M82.25,391.53a1.67,1.67,0,1,1-1.67-1.67A1.67,1.67,0,0,1,82.25,391.53Z"/><circle class="cls-10" cx="312.34" cy="333.69" r="0.81"/></g><path class="cls-11" d="M359.42,510.91h1.38V59.11h-1.38v26H330.14V59.11h-1.38v26H299.49V59.11h-1.38v26H268.84V59.11h-1.38v26H238.18V59.11H236.8v26H207.53V59.11h-1.38v26H176.88V59.11H175.5v26H146.22V59.11h-1.38v26H115.57V59.11h-1.38v26H84.92V59.11H83.54v26H54.26V59.11H52.88v451.8h1.38v-26H83.54v26h1.38v-26h29.27v26h1.38v-26h29.27v26h1.38v-26H175.5v26h1.38v-26h29.27v26h1.38v-26H236.8v26h1.38v-26h29.28v26h1.38v-26h29.27v26h1.38v-26h29.27v26h1.38v-26h29.28ZM83.54,483.55H54.26V454.28H83.54Zm30.65,0H84.92V454.28h29.27Zm30.65,0H115.57V454.28h29.27Zm30.66,0H146.22V454.28H175.5Zm30.65,0H176.88V454.28h29.27Zm30.65,0H207.53V454.28H236.8Zm30.66,0H238.18V454.28h29.28Zm30.65,0H268.84V454.28h29.27Zm30.65,0H299.49V454.28h29.27Zm30.66,0H330.14V454.28h29.28ZM83.54,452.9H54.26V423.63H83.54Zm30.65,0H84.92V423.63h29.27Zm30.65,0H115.57V423.63h29.27Zm30.66,0H146.22V423.63H175.5Zm30.65,0H176.88V423.63h29.27Zm30.65,0H207.53V423.63H236.8Zm30.66,0H238.18V423.63h29.28Zm30.65,0H268.84V423.63h29.27Zm30.65,0H299.49V423.63h29.27Zm30.66,0H330.14V423.63h29.28ZM83.54,422.25H54.26V393H83.54Zm30.65,0H84.92V393h29.27Zm30.65,0H115.57V393h29.27Zm30.66,0H146.22V393H175.5Zm30.65,0H176.88V393h29.27Zm30.65,0H207.53V393H236.8Zm30.66,0H238.18V393h29.28Zm30.65,0H268.84V393h29.27Zm30.65,0H299.49V393h29.27Zm30.66,0H330.14V393h29.28ZM83.54,391.59H54.26V362.32H83.54Zm30.65,0H84.92V362.32h29.27Zm30.65,0H115.57V362.32h29.27Zm30.66,0H146.22V362.32H175.5Zm30.65,0H176.88V362.32h29.27Zm30.65,0H207.53V362.32H236.8Zm30.66,0H238.18V362.32h29.28Zm30.65,0H268.84V362.32h29.27Zm30.65,0H299.49V362.32h29.27Zm30.66,0H330.14V362.32h29.28ZM83.54,360.94H54.26V331.67H83.54Zm30.65,0H84.92V331.67h29.27Zm30.65,0H115.57V331.67h29.27Zm30.66,0H146.22V331.67H175.5Zm30.65,0H176.88V331.67h29.27Zm30.65,0H207.53V331.67H236.8Zm30.66,0H238.18V331.67h29.28Zm30.65,0H268.84V331.67h29.27Zm30.65,0H299.49V331.67h29.27Zm30.66,0H330.14V331.67h29.28ZM83.54,330.29H54.26V301H83.54Zm30.65,0H84.92V301h29.27Zm30.65,0H115.57V301h29.27Zm30.66,0H146.22V301H175.5Zm30.65,0H176.88V301h29.27Zm30.65,0H207.53V301H236.8Zm30.66,0H238.18V301h29.28Zm30.65,0H268.84V301h29.27Zm30.65,0H299.49V301h29.27Zm30.66,0H330.14V301h29.28ZM83.54,299.63H54.26V270.36H83.54Zm30.65,0H84.92V270.36h29.27Zm30.65,0H115.57V270.36h29.27Zm30.66,0H146.22V270.36H175.5Zm30.65,0H176.88V270.36h29.27Zm30.65,0H207.53V270.36H236.8Zm30.66,0H238.18V270.36h29.28Zm30.65,0H268.84V270.36h29.27Zm30.65,0H299.49V270.36h29.27Zm30.66,0H330.14V270.36h29.28ZM83.54,269H54.26V239.71H83.54Zm30.65,0H84.92V239.71h29.27Zm30.65,0H115.57V239.71h29.27Zm30.66,0H146.22V239.71H175.5Zm30.65,0H176.88V239.71h29.27Zm30.65,0H207.53V239.71H236.8Zm30.66,0H238.18V239.71h29.28Zm30.65,0H268.84V239.71h29.27Zm30.65,0H299.49V239.71h29.27Zm30.66,0H330.14V239.71h29.28ZM83.54,238.33H54.26V209.06H83.54Zm30.65,0H84.92V209.06h29.27Zm30.65,0H115.57V209.06h29.27Zm30.66,0H146.22V209.06H175.5Zm30.65,0H176.88V209.06h29.27Zm30.65,0H207.53V209.06H236.8Zm30.66,0H238.18V209.06h29.28Zm30.65,0H268.84V209.06h29.27Zm30.65,0H299.49V209.06h29.27Zm30.66,0H330.14V209.06h29.28ZM83.54,207.67H54.26V178.4H83.54Zm30.65,0H84.92V178.4h29.27Zm30.65,0H115.57V178.4h29.27Zm30.66,0H146.22V178.4H175.5Zm30.65,0H176.88V178.4h29.27Zm30.65,0H207.53V178.4H236.8Zm30.66,0H238.18V178.4h29.28Zm30.65,0H268.84V178.4h29.27Zm30.65,0H299.49V178.4h29.27Zm30.66,0H330.14V178.4h29.28ZM83.54,177H54.26V147.75H83.54Zm30.65,0H84.92V147.75h29.27Zm30.65,0H115.57V147.75h29.27Zm30.66,0H146.22V147.75H175.5Zm30.65,0H176.88V147.75h29.27Zm30.65,0H207.53V147.75H236.8Zm30.66,0H238.18V147.75h29.28Zm30.65,0H268.84V147.75h29.27Zm30.65,0H299.49V147.75h29.27Zm30.66,0H330.14V147.75h29.28ZM83.54,146.37H54.26V117.1H83.54Zm30.65,0H84.92V117.1h29.27Zm30.65,0H115.57V117.1h29.27Zm30.66,0H146.22V117.1H175.5Zm30.65,0H176.88V117.1h29.27Zm30.65,0H207.53V117.1H236.8Zm30.66,0H238.18V117.1h29.28Zm30.65,0H268.84V117.1h29.27Zm30.65,0H299.49V117.1h29.27Zm30.66,0H330.14V117.1h29.28ZM83.54,115.71H54.26V86.44H83.54Zm30.65,0H84.92V86.44h29.27Zm30.65,0H115.57V86.44h29.27Zm30.66,0H146.22V86.44H175.5Zm30.65,0H176.88V86.44h29.27Zm30.65,0H207.53V86.44H236.8Zm30.66,0H238.18V86.44h29.28Zm30.65,0H268.84V86.44h29.27Zm30.65,0H299.49V86.44h29.27Zm30.66,0H330.14V86.44h29.28Z"/><g class="cls-12"><line class="cls-13" x1="9.94" y1="486.2" x2="137.84" y2="358.3"/><path class="cls-10" d="M12.13,488.18a2.95,2.95,0,1,1,0-4.17A3,3,0,0,1,12.13,488.18Z"/><path class="cls-10" d="M139.82,360.49a2.95,2.95,0,1,0-4.17,0A3,3,0,0,0,139.82,360.49Z"/></g><g class="cls-12"><line class="cls-13" x1="308.83" y1="223.54" x2="412.76" y2="119.61"/><path class="cls-10" d="M311,225.52a2.95,2.95,0,1,1,0-4.17A3,3,0,0,1,311,225.52Z"/><path class="cls-10" d="M414.74,121.8a2.95,2.95,0,1,0-4.17,0A3,3,0,0,0,414.74,121.8Z"/></g><g class="cls-12"><line class="cls-13" x1="277.9" y1="483.41" x2="381.83" y2="379.48"/><path class="cls-10" d="M280.09,485.39a2.95,2.95,0,1,1,0-4.17A3,3,0,0,1,280.09,485.39Z"/><circle class="cls-10" cx="381.73" cy="379.58" r="2.95" transform="translate(-73.7 92.55) rotate(-12.62)"/></g><g class="cls-12"><line class="cls-13" x1="295.5" y1="497.78" x2="399.43" y2="393.85"/><path class="cls-10" d="M297.69,499.76a2.95,2.95,0,1,1,0-4.17A3,3,0,0,1,297.69,499.76Z"/><path class="cls-10" d="M401.41,396a2.95,2.95,0,1,0-4.17,0A3,3,0,0,0,401.41,396Z"/></g><g class="cls-12"><line class="cls-13" x1="131.75" y1="214.35" x2="291.54" y2="54.56"/><path class="cls-10" d="M133.94,216.33a2.95,2.95,0,1,1,0-4.17A3,3,0,0,1,133.94,216.33Z"/><path class="cls-10" d="M293.52,56.75a2.95,2.95,0,1,0-4.17,0A3,3,0,0,0,293.52,56.75Z"/></g><g class="cls-12"><line class="cls-13" x1="203.58" y1="162.64" x2="363.37" y2="2.84"/><path class="cls-10" d="M205.77,164.62a2.95,2.95,0,1,1,0-4.17A3,3,0,0,1,205.77,164.62Z"/><circle class="cls-10" cx="363.27" cy="2.95" r="2.95" transform="translate(52.7 191.42) rotate(-31.72)"/></g><g class="cls-12"><line class="cls-13" x1="31.91" y1="499.26" x2="124.63" y2="406.54"/><path class="cls-10" d="M34.1,501.24a2.95,2.95,0,1,1,0-4.17A3,3,0,0,1,34.1,501.24Z"/><circle class="cls-10" cx="124.52" cy="406.65" r="2.95"/></g><path class="cls-14" d="M290.37,404.56a6.9,6.9,0,1,1-6.9-6.89A6.9,6.9,0,0,1,290.37,404.56Z"/><circle class="cls-15" cx="283.47" cy="404.56" r="13.56"/><circle class="cls-14" cx="84.6" cy="197.13" r="6.89"/><circle class="cls-15" cx="84.6" cy="197.13" r="13.56"/><path class="cls-14" d="M302.76,125.72a9.8,9.8,0,1,1,4-13.27A9.8,9.8,0,0,1,302.76,125.72Z"/><circle class="cls-15" cx="298.11" cy="117.1" r="14.82" transform="matrix(0.16, -0.99, 0.99, 0.16, 135.86, 393.24)"/></g><circle class="cls-13" cx="79.17" cy="127.34" r="5.08"/><circle class="cls-13" cx="79.17" cy="127.34" r="3.17"/><circle class="cls-16" cx="79.17" cy="127.34" r="1.2"/><text class="cls-17" transform="translate(93.18 130.16)">C<tspan class="cls-18" x="5.06" y="0">OM</tspan><tspan class="cls-19" x="18.31" y="0">P</tspan><tspan class="cls-18" x="22.45" y="0">A</tspan><tspan class="cls-20" x="27.95" y="0">N</tspan><tspan class="cls-18" x="33.78" y="0">Y N</tspan><tspan class="cls-21" x="46.75" y="0">A</tspan><tspan class="cls-18" x="52.22" y="0">ME</tspan></text><text class="cls-22" transform="translate(153.56 251.6)">N<tspan class="cls-23" x="7.74" y="0">i</tspan><tspan class="cls-24" x="10.8" y="0">c</tspan><tspan class="cls-23" x="16.1" y="0">e </tspan><tspan class="cls-25" x="24.87" y="0">t</tspan><tspan class="cls-23" x="28.91" y="0">o see </tspan><tspan class="cls-26" x="57.7" y="0">y</tspan><tspan class="cls-23" x="63.21" y="0">ou again</tspan><tspan class="cls-27"><tspan x="-54.84" y="32.34">wE</tspan><tspan class="cls-28" x="-12.56" y="32.34">L</tspan><tspan class="cls-29" x="1.64" y="32.34">C</tspan><tspan class="cls-30" x="19.54" y="32.34">OME B</tspan><tspan class="cls-31" x="107.42" y="32.34">A</tspan><tspan class="cls-30" x="126.44" y="32.34">CK</tspan></tspan></text><text class="cls-32" transform="translate(135.21 318.64)">L<tspan class="cls-33" x="2.39" y="0">o</tspan><tspan class="cls-34" x="5.23" y="0">r</tspan><tspan class="cls-33" x="6.93" y="0">em ipsum dolor sit ame</tspan><tspan class="cls-35" x="58.03" y="0">t</tspan><tspan class="cls-36" x="59.79" y="0">, </tspan><tspan class="cls-37" x="62.13" y="0">c</tspan><tspan class="cls-33" x="64.45" y="0">onse</tspan><tspan class="cls-38" x="74.84" y="0">c</tspan><tspan class="cls-37" x="77.25" y="0">t</tspan><tspan class="cls-33" x="78.99" y="0">etuer adipiscing eli</tspan><tspan class="cls-35" x="120.54" y="0">t</tspan><tspan class="cls-33" x="122.3" y="0">, sed diam </tspan><tspan class="cls-33"><tspan x="-6.28" y="7.84">nonum</tspan><tspan class="cls-39" x="9.37" y="7.84">m</tspan><tspan x="13.54" y="7.84">y nibh euismod tincidu</tspan><tspan class="cls-40" x="63.64" y="7.84">n</tspan><tspan x="66.49" y="7.84">t ut lao</tspan><tspan class="cls-34" x="81.89" y="7.84">r</tspan><tspan x="83.59" y="7.84">eet dolo</tspan><tspan class="cls-41" x="101.64" y="7.84">r</tspan><tspan x="103.34" y="7.84">e ma</tspan><tspan class="cls-37" x="113.87" y="7.84">g</tspan><tspan x="116.73" y="7.84">na aliquam e</tspan><tspan class="cls-42" x="144.67" y="7.84">ra</tspan><tspan x="148.89" y="7.84">t </tspan></tspan><tspan class="cls-41"><tspan x="18.71" y="15.68">v</tspan><tspan class="cls-33" x="21.17" y="15.68">olutp</tspan><tspan class="cls-40" x="32.86" y="15.68">at</tspan><tspan class="cls-36" x="37.1" y="15.68">. </tspan><tspan class="cls-43" x="39.45" y="15.68">U</tspan><tspan class="cls-33" x="42.79" y="15.68">t wisi enim ad minim </tspan><tspan class="cls-34" x="89.25" y="15.68">v</tspan><tspan class="cls-33" x="91.7" y="15.68">eniam, quis nos</tspan></tspan></text><path class="cls-10" d="M216.49,300.69H198.16a1.71,1.71,0,0,1-1.71-1.71h0a1.7,1.7,0,0,1,1.71-1.71h18.33A1.71,1.71,0,0,1,218.2,299h0A1.72,1.72,0,0,1,216.49,300.69Z"/></g></g></g></svg>